<svg width="1440" height="230" viewBox="0 0 1440 230" fill="none" xmlns="http://www.w3.org/2000/svg">
<g opacity="0.1">
<mask id="mask0_2001_466" style="mask-type:luminance" maskUnits="userSpaceOnUse" x="0" y="-506" width="1440" height="960">
<path d="M1440 -506H0V454H1440V-506Z" fill="white"/>
</mask>
<g mask="url(#mask0_2001_466)">
<g opacity="0.2">
<path d="M-38.52 -682.4C8.03998 -738.56 85.92 -700.64 146.76 -699.2C177.12 -697.04 207.48 -701 237.96 -699.92C296.76 -699.2 356.16 -697.16 414.36 -707.6C447.84 -713.48 480.72 -723.32 511.8 -737.36C538.08 -749.6 562.8 -764.48 589.8 -775.04C649.32 -799.52 712.8 -814.16 777 -818.84C888.36 -824.84 999.24 -806.36 1110.24 -800.96C1231.68 -796.04 1353.36 -800 1474.92 -798.8C1473.72 -636.92 1477.44 -474.92 1473.36 -313.04C1467.24 -223.4 1454.52 -134.24 1448.64 -44.6002C1445.88 25.2398 1448.16 94.9598 1447.44 164.92C1410.36 172.6 1376.04 211.24 1344.96 232.84C1265.88 293.68 1208.28 328.96 1110.6 282.04C1031.52 248.08 960.84 195.4 878.28 169.72C846 159.88 811.92 162.88 778.68 164.68C702.36 170.32 626.64 182.2 550.08 183.88C452.64 185.44 432.48 167.2 337.08 216.4C253.92 260.8 180.12 287.56 88.68 245.8C48.36 227.92 6.47998 210.64 -38.52 211.6C-38.4 -86.6002 -38.52 -384.44 -38.52 -682.4Z" stroke="white" stroke-width="0.55116" stroke-miterlimit="10" stroke-linecap="round" stroke-linejoin="round"/>
<path d="M-38.3999 172.48C35.8801 174.16 101.52 219.88 176.28 217.84C266.64 219.52 342.6 158.32 430.8 149.44C452.88 147.04 474.6 151.6 496.44 153.88C525.96 156.88 555.6 157.48 585.24 156.52C650.04 154.6 714.24 145.12 778.68 138.76C840.36 130.72 884.76 135.88 942.12 161.08C1023.24 192.52 1098.6 245.56 1186.56 255.64C1240.32 255.64 1287.36 222.52 1329.72 192.64C1351.08 177.16 1371.6 160.6 1392.84 145C1409.76 133.36 1426.8 119.56 1447.44 115.84" stroke="white" stroke-width="0.55116" stroke-miterlimit="10" stroke-linecap="round" stroke-linejoin="round"/>
<path d="M-38.3999 133.72C11.1601 138.04 58.0801 154.96 106.56 164.44C204.12 186.16 290.52 145.48 383.04 123.04C406.08 118.12 429.72 115.36 453.24 117.04C471.6 118 489.36 123.64 507.6 126.04C542.16 131.08 577.2 131.8 612.12 130.12C689.88 127 766.08 108.4 843.6 102.52C883.32 101.44 922.08 113.68 959.28 126.52C1033.2 151 1104.12 191.92 1183.08 196.36C1234.32 194.44 1280.4 167.92 1323.12 141.88C1363.8 118.96 1400.76 83.8001 1447.68 75.5201" stroke="white" stroke-width="0.55116" stroke-miterlimit="10" stroke-linecap="round" stroke-linejoin="round"/>
<path d="M-38.3999 94.84C45.8401 109.36 130.44 134.2 216.48 119.68C276.24 110.8 334.08 91.4801 394.2 84.5201C419.52 81.6401 445.2 81.5201 470.28 86.0801C490.2 89.4401 509.16 97.2401 529.2 100.12C572.04 107.44 615.96 106.24 659.04 101.08C726.72 94.4801 791.88 72.5201 859.44 66.5201C900.96 65.5601 941.76 76.1201 981.6 87.1601C1119.48 126.88 1177.08 161.92 1314.84 88.0001C1357.92 68.2001 1399.08 37.6001 1447.44 34.2401" stroke="white" stroke-width="0.55116" stroke-miterlimit="10" stroke-linecap="round" stroke-linejoin="round"/>
<path d="M-38.3999 55.9596C30.0001 71.1996 99.96 83.4397 170.28 77.7997C284.76 70.5997 403.2 18.1596 515.4 64.7196C594.48 94.3596 681.48 76.4796 760.68 56.3196C838.44 34.1196 878.76 21.0397 961.44 36.3997C1097.28 60.0397 1164.72 95.9196 1301.16 34.3596C1348.92 16.1196 1395.36 -12.0804 1447.56 -13.8804" stroke="white" stroke-width="0.55116" stroke-miterlimit="10" stroke-linecap="round" stroke-linejoin="round"/>
<path d="M-38.3999 17.08C40.0801 40 122.88 40.36 203.28 28.48C289.32 15.76 377.4 -7.76001 464.16 12.64C504.12 19.72 537.96 44.56 577.68 52.12C643.32 64.72 710.28 47.8 772.92 28.36C809.28 17.44 844.44 1.59999 882.36 -2.96001C982.44 -14.96 1081.2 19.24 1181.28 13.24C1235.16 9.15999 1286.4 -9.44001 1337.28 -26.36C1373.52 -38 1410.6 -51.32 1449.12 -50.12" stroke="white" stroke-width="0.55116" stroke-miterlimit="10" stroke-linecap="round" stroke-linejoin="round"/>
<path d="M-38.3999 -21.6805C45.8401 8.07954 136.44 -6.20049 222.24 -20.9605C292.32 -34.0405 364.32 -47.6004 435.36 -33.4404C564.24 -7.40045 562.08 62.0795 720.84 23.4395C768.96 12.1595 814.32 -8.36049 861.24 -23.3605C957.12 -50.0005 1057.2 -30.4404 1155 -29.6004C1258.2 -29.7204 1350.6 -88.8804 1452.72 -94.6404" stroke="white" stroke-width="0.55116" stroke-miterlimit="10" stroke-linecap="round" stroke-linejoin="round"/>
<path d="M-38.3999 -60.5601C17.8801 -36.8001 80.6401 -42.2001 139.44 -52.4001C236.28 -68.4801 335.64 -102.56 433.8 -76.0401C552 -47.3601 561.36 32.5599 698.04 4.59994C764.76 -7.76006 824.16 -42.4401 888.6 -61.6401C961.44 -81.6801 1037.76 -83.8401 1112.88 -83.3601C1169.64 -80.1201 1225.92 -88.6401 1280.52 -104.24C1339.08 -119.36 1396.68 -141.44 1457.52 -144.8" stroke="white" stroke-width="0.55116" stroke-miterlimit="10" stroke-linecap="round" stroke-linejoin="round"/>
<path d="M1436.76 -798.8C1435.68 -632.12 1438.8 -465.44 1435.56 -298.88C1431 -215 1419.96 -131.36 1417.56 -47.3604C1417.68 25.7197 1426.2 98.5597 1427.16 171.76" stroke="white" stroke-width="0.55116" stroke-miterlimit="10" stroke-linecap="round" stroke-linejoin="round"/>
<path d="M1398.72 -798.8C1397.28 -624.8 1401.48 -450.68 1397.04 -276.68C1392.96 -196.52 1382.64 -116.48 1383.24 -36.2003C1386.48 38.9197 1399.08 113.32 1401.48 188.56" stroke="white" stroke-width="0.55116" stroke-miterlimit="10" stroke-linecap="round" stroke-linejoin="round"/>
<path d="M1360.56 -798.8C1360.56 -684.2 1360.56 -569.6 1360.56 -455C1359.84 -388.4 1362.96 -321.8 1358.04 -255.32C1353.96 -179 1344.36 -102.68 1346.52 -26.2404C1351.68 53.3196 1368.24 131.92 1371.6 211.72" stroke="white" stroke-width="0.55116" stroke-miterlimit="10" stroke-linecap="round" stroke-linejoin="round"/>
<path d="M1322.52 -798.8C1322.52 -684.92 1322.52 -571.16 1322.52 -457.28C1322.16 -382.04 1324.8 -306.8 1318.2 -231.68C1314 -159.32 1304.76 -86.9603 1307.76 -14.4803C1314.24 70.1197 1334.28 153.28 1338.36 238" stroke="white" stroke-width="0.55116" stroke-miterlimit="10" stroke-linecap="round" stroke-linejoin="round"/>
<path d="M1284.36 -798.8C1284.36 -686.24 1284.36 -573.8 1284.36 -461.24C1284.48 -377.96 1285.92 -294.68 1277.76 -211.64C1273.32 -139.76 1263 -67.7602 1268.04 4.35977C1276.2 91.2398 1298.04 176.56 1302.48 263.8" stroke="white" stroke-width="0.55116" stroke-miterlimit="10" stroke-linecap="round" stroke-linejoin="round"/>
<path d="M1246.32 -798.8C1246.32 -678.92 1246.32 -558.92 1246.32 -439.04C1248.72 -339.8 1242.36 -242.72 1232.64 -144.08C1228.92 -92.1205 1222.44 -39.8005 1226.88 12.2795C1235.64 103.839 1260.6 193.599 1265.04 285.639" stroke="white" stroke-width="0.55116" stroke-miterlimit="10" stroke-linecap="round" stroke-linejoin="round"/>
<path d="M1208.16 -798.8C1208.16 -646.88 1208.16 -494.96 1208.16 -342.92C1206 -266.96 1196.16 -191.36 1189.92 -115.76C1186.68 -74.0004 1181.76 -32.0003 1184.64 9.87966C1193.04 107.32 1222.08 202.48 1226.88 300.28" stroke="white" stroke-width="0.55116" stroke-miterlimit="10" stroke-linecap="round" stroke-linejoin="round"/>
<path d="M1170.24 -798.92C1170.12 -645.2 1171.08 -491.6 1170.48 -337.88C1167.24 -262.88 1157.4 -188.36 1150.68 -113.6C1147.44 -72.2001 1141.92 -30.8001 1144.92 10.7199C1153.44 109.24 1183.8 205.24 1188.6 304.12" stroke="white" stroke-width="0.55116" stroke-miterlimit="10" stroke-linecap="round" stroke-linejoin="round"/>
<path d="M1131.84 -799.88C1132.08 -691.28 1133.04 -582.68 1133.64 -474.08C1134.6 -387.08 1135.68 -300.2 1125.72 -213.56C1120.08 -135.8 1107.24 -57.8001 1111.68 20.1999C1119.6 112.6 1144.2 203.32 1148.52 296.08" stroke="white" stroke-width="0.55116" stroke-miterlimit="10" stroke-linecap="round" stroke-linejoin="round"/>
<path d="M1091.76 -802.16C1092 -690.44 1093.56 -578.84 1094.52 -467.24C1094.52 -393.8 1097.88 -320.36 1091.16 -247.04C1085.28 -160.28 1072.56 -73.5204 1074 13.4796C1079.52 102.52 1100.76 190.12 1104.6 279.16" stroke="white" stroke-width="0.55116" stroke-miterlimit="10" stroke-linecap="round" stroke-linejoin="round"/>
<path d="M1050.36 -805.16C1049.4 -624.56 1057.56 -443.96 1052.76 -263.48C1047.48 -172.52 1035.12 -81.6804 1034.4 9.51955C1037.88 92.1995 1054.92 173.92 1058.4 256.6" stroke="white" stroke-width="0.55116" stroke-miterlimit="10" stroke-linecap="round" stroke-linejoin="round"/>
<path d="M1007.88 -808.64C1007.52 -626.96 1013.4 -445.4 1011.72 -263.72C1007.52 -173.48 996.36 -83.6003 993.6 6.63965C995.16 81.6396 1008 156.16 1011.12 231.16" stroke="white" stroke-width="0.55116" stroke-miterlimit="10" stroke-linecap="round" stroke-linejoin="round"/>
<path d="M964.68 -812.24C964.44 -625.16 969.6 -437.96 969.12 -250.88C966.48 -162.2 955.68 -73.8804 952.44 14.6796C953.16 78.6396 961.2 142.24 964.08 206.08" stroke="white" stroke-width="0.55116" stroke-miterlimit="10" stroke-linecap="round" stroke-linejoin="round"/>
<path d="M921.12 -815.6C920.76 -616.88 926.16 -418.04 925.92 -219.32C924.6 -165.92 919.68 -112.52 917.76 -59.1205C916.2 -34.4005 911.52 -10.1605 911.64 14.5595C910.8 71.1995 915.48 127.839 918.48 184.239" stroke="white" stroke-width="0.55116" stroke-miterlimit="10" stroke-linecap="round" stroke-linejoin="round"/>
<path d="M877.32 -818.48C877.08 -603.44 882.6 -388.28 883.08 -173.24C880.2 -117.8 882.36 -61.8801 874.32 -6.80013C869.16 51.5199 871.92 110.56 875.88 168.88" stroke="white" stroke-width="0.55116" stroke-miterlimit="10" stroke-linecap="round" stroke-linejoin="round"/>
<path d="M833.28 -820.28C833.64 -568.88 840.24 -317.36 842.28 -65.9602C844.44 -35.2402 838.92 -5.1202 836.04 25.3598C832.92 71.0798 832.2 117.4 837 163.12" stroke="white" stroke-width="0.55116" stroke-miterlimit="10" stroke-linecap="round" stroke-linejoin="round"/>
<path d="M788.16 -819.56C786.96 -670.64 790.44 -521.84 792 -372.92C792.72 -305.24 793.32 -237.56 792.72 -169.88C797.64 -123.8 799.56 -77.5999 801.72 -31.2799C803.88 -6.67987 797.76 17.3201 795.72 41.6801C792.12 82.1201 789.36 123.28 795.24 163.72" stroke="white" stroke-width="0.55116" stroke-miterlimit="10" stroke-linecap="round" stroke-linejoin="round"/>
<path d="M744.24 -815.6C741.84 -661.76 744.96 -507.92 745.8 -354.08C746.28 -284.36 746.4 -214.64 745.32 -145.04C748.32 -114.8 753.48 -85.0404 755.88 -54.6804C757.32 -34.6404 760.56 -14.3604 760.2 5.79965C754.56 59.0796 740.64 113.2 750.36 166.84" stroke="white" stroke-width="0.55116" stroke-miterlimit="10" stroke-linecap="round" stroke-linejoin="round"/>
<path d="M701.76 -808.761C698.76 -653.961 701.76 -499.161 702.36 -344.361C702.6 -293.121 702.72 -241.881 702.24 -190.641C702.72 -160.281 698.64 -129.561 704.76 -99.6806C710.28 -59.0006 719.52 -18.0806 718.56 23.0794C711.12 72.1594 692.88 121.719 702.12 171.759" stroke="white" stroke-width="0.55116" stroke-miterlimit="10" stroke-linecap="round" stroke-linejoin="round"/>
<path d="M660.96 -799.16C657.36 -568.28 663.96 -337.04 661.92 -106.16C666.84 -60.7998 680.04 -15.6798 678.12 30.1602C669.24 78.8802 642.84 126.4 651.48 177.16" stroke="white" stroke-width="0.55116" stroke-miterlimit="10" stroke-linecap="round" stroke-linejoin="round"/>
<path d="M622.2 -787.28C618.84 -560.48 627.96 -333.44 625.44 -106.76C628.8 -61.5202 641.52 -16.8802 639.72 28.5998C630.24 80.3198 592.08 126.76 599.28 181.48" stroke="white" stroke-width="0.55116" stroke-miterlimit="10" stroke-linecap="round" stroke-linejoin="round"/>
<path d="M585.48 -773.241C583.8 -629.721 588.96 -486.081 591.36 -342.561C594.6 -257.721 590.64 -172.521 595.2 -87.9206C597.6 -51.0806 605.76 -14.0007 602.64 22.8393C591 78.8793 541.2 123.999 545.28 183.879" stroke="white" stroke-width="0.55116" stroke-miterlimit="10" stroke-linecap="round" stroke-linejoin="round"/>
<path d="M551.28 -757.4C551.4 -609.2 558.84 -461.12 562.8 -313.04C566.16 -219.44 564.48 -125.72 569.16 -32.2404C583.2 51.0396 491.4 102.76 490.8 183.04" stroke="white" stroke-width="0.55116" stroke-miterlimit="10" stroke-linecap="round" stroke-linejoin="round"/>
<path d="M512.52 -737.72C519.12 -500.96 546.24 -264.68 537.84 -27.6801C530.88 50.3199 451.32 101.92 447.96 181.12" stroke="white" stroke-width="0.55116" stroke-miterlimit="10" stroke-linecap="round" stroke-linejoin="round"/>
<path d="M470.04 -721.4C480.12 -584.36 493.08 -447.44 504.36 -310.4C506.88 -269.24 513.36 -228.08 511.68 -186.8C510.6 -154.64 508.32 -122.72 507.12 -90.5603C505.8 -70.4003 507.36 -49.6402 503.28 -29.8402C486.6 46.9598 419.88 105.64 414.6 186.04" stroke="white" stroke-width="0.55116" stroke-miterlimit="10" stroke-linecap="round" stroke-linejoin="round"/>
<path d="M428.28 -710.36C445.2 -561.8 462.36 -413.36 479.16 -264.8C485.04 -227.24 478.92 -188.96 477.24 -151.28C473.04 -111.92 476.52 -71.4803 467.52 -32.7203C447.48 46.3597 388.68 112.84 382.68 196" stroke="white" stroke-width="0.55116" stroke-miterlimit="10" stroke-linecap="round" stroke-linejoin="round"/>
<path d="M387.36 -703.761C408.48 -559.881 426.96 -415.521 448.08 -271.641C449.28 -227.721 443.16 -183.321 441.12 -139.401C438.36 -102.321 440.16 -64.4006 429.48 -28.2806C407.64 52.2394 357.48 124.599 351.36 209.319" stroke="white" stroke-width="0.55116" stroke-miterlimit="10" stroke-linecap="round" stroke-linejoin="round"/>
<path d="M347.4 -700.4C370.2 -563.6 388.8 -426.08 411.48 -289.16C410.64 -241.76 406.2 -194.24 403.8 -146.96C401.4 -111.92 402.6 -76.2801 395.04 -41.8401C376.2 48.6399 326.16 131.2 320.28 224.56" stroke="white" stroke-width="0.55116" stroke-miterlimit="10" stroke-linecap="round" stroke-linejoin="round"/>
<path d="M308.64 -699.32C330.36 -567.56 348.36 -435.2 370.08 -303.44C369.48 -256.04 365.88 -208.4 363.96 -161C361.92 -127.16 362.76 -92.9598 358.44 -59.2398C344.76 42.5202 294 136.36 288.84 239.68" stroke="white" stroke-width="0.55116" stroke-miterlimit="10" stroke-linecap="round" stroke-linejoin="round"/>
<path d="M271.2 -699.56C288.36 -575.48 304.2 -451.16 321.24 -327.08C325.56 -305 323.04 -282.2 322.8 -259.88C321.84 -223.52 320.52 -187.28 319.56 -150.8C318.6 -99.7999 318.36 -48.5599 306.84 1.36014C289.68 85.0001 259.68 166.72 256.8 252.88" stroke="white" stroke-width="0.55116" stroke-miterlimit="10" stroke-linecap="round" stroke-linejoin="round"/>
<path d="M235.32 -700.04C248.28 -568.16 262.44 -436.28 275.52 -304.28C275.4 -238.4 273.84 -172.28 273.48 -106.4C277.56 18.8798 225.72 137.68 223.44 262.48" stroke="white" stroke-width="0.55116" stroke-miterlimit="10" stroke-linecap="round" stroke-linejoin="round"/>
<path d="M201.12 -699.801C209.76 -564.681 221.52 -429.681 230.16 -294.561C230.52 -223.281 229.2 -152.001 229.32 -80.6006C230.04 36.6394 188.28 149.319 187.2 266.439" stroke="white" stroke-width="0.55116" stroke-miterlimit="10" stroke-linecap="round" stroke-linejoin="round"/>
<path d="M162.48 -698.6C168.84 -559.16 178.68 -419.72 185.16 -280.28C185.76 -206.84 184.92 -133.28 185.28 -59.84C183.96 49.12 150.96 155.08 150.48 264.16" stroke="white" stroke-width="0.55116" stroke-miterlimit="10" stroke-linecap="round" stroke-linejoin="round"/>
<path d="M120.72 -701.96C129.84 -479.84 145.2 -257.84 143.4 -35.3605C141.12 62.4395 117.6 158.68 118.32 256.6" stroke="white" stroke-width="0.55116" stroke-miterlimit="10" stroke-linecap="round" stroke-linejoin="round"/>
<path d="M82.3198 -707.72C89.0398 -474.68 102 -241.64 104.04 -8.48013C101.64 76.3599 87.2399 160.72 89.3999 245.8" stroke="white" stroke-width="0.55116" stroke-miterlimit="10" stroke-linecap="round" stroke-linejoin="round"/>
<path d="M47.04 -712.28C52.56 -485.12 56.76 -257.96 66.96 -31.0402C69 57.2798 57.6 145.48 61.2 233.8" stroke="white" stroke-width="0.55116" stroke-miterlimit="10" stroke-linecap="round" stroke-linejoin="round"/>
<path d="M15.2402 -712.04C18.7202 -524.84 18.2402 -337.4 25.4402 -150.32C27.8402 -95.4801 31.8002 -40.5201 31.9202 14.4399C32.1602 83.9199 28.8002 153.4 31.9202 222.76" stroke="white" stroke-width="0.55116" stroke-miterlimit="10" stroke-linecap="round" stroke-linejoin="round"/>
<path d="M1423.2 81.1602C1422.96 81.2802 1422.72 81.6402 1422.72 82.0002C1423.08 83.6802 1424.52 80.9202 1423.2 81.1602Z" fill="white" stroke="white" stroke-width="4.40916" stroke-miterlimit="10"/>
<path d="M1425.48 123.16C1425.24 123.28 1425 123.76 1425.12 124.12C1425.36 125.8 1426.68 122.92 1425.48 123.16Z" fill="white" stroke="white" stroke-width="4.40916" stroke-miterlimit="10"/>
<path d="M1420.68 37.8393C1420.08 37.9593 1419.96 39.5193 1420.8 39.3993C1421.28 39.2793 1421.4 37.7193 1420.68 37.8393Z" fill="white" stroke="white" stroke-width="4.40916" stroke-miterlimit="10"/>
<path d="M1427.04 170.8C1426.56 171.04 1426.32 172.6 1427.04 172.6C1427.52 172.36 1427.76 170.8 1427.04 170.8Z" fill="white" stroke="white" stroke-width="4.40916" stroke-miterlimit="10"/>
<path d="M1398.72 140.08C1398.24 140.32 1398 142 1398.84 141.52C1399.32 141.28 1399.68 139.6 1398.72 140.08Z" fill="white" stroke="white" stroke-width="4.40916" stroke-miterlimit="10"/>
<path d="M1394.64 95.6796C1394.04 95.9196 1393.92 97.4796 1394.76 97.1196C1395.36 96.8796 1395.6 95.3196 1394.64 95.6796Z" fill="white" stroke="white" stroke-width="4.40916" stroke-miterlimit="10"/>
<path d="M1389.96 49.4794C1389.36 49.7194 1389.24 51.3994 1390.08 51.0394C1390.8 50.9194 1390.92 49.2394 1389.96 49.4794Z" fill="white" stroke="white" stroke-width="4.40916" stroke-miterlimit="10"/>
<path d="M1385.52 -1.16038C1385.16 -1.04038 1384.92 -0.680368 1384.92 -0.320368C1385.4 1.11963 1387.08 -1.40038 1385.52 -1.16038Z" fill="white" stroke="white" stroke-width="4.40916" stroke-miterlimit="10"/>
<path d="M1401.48 187.719C1401.12 188.079 1400.76 189.04 1401.12 189.4C1401.96 189.76 1402.44 187.239 1401.48 187.719Z" fill="white" stroke="white" stroke-width="4.40916" stroke-miterlimit="10"/>
<path d="M1362.6 115.48C1362.24 115.72 1362 116.2 1362.12 116.68C1362.72 118.48 1364.16 115 1362.6 115.48Z" fill="white" stroke="white" stroke-width="4.40916" stroke-miterlimit="10"/>
<path d="M1368.12 162.88C1367.76 163.12 1367.52 163.72 1367.64 164.08C1368.12 165.76 1369.68 162.16 1368.12 162.88Z" fill="white" stroke="white" stroke-width="4.40916" stroke-miterlimit="10"/>
<path d="M1350 12.8796C1349.64 12.9996 1349.4 13.4796 1349.4 13.8396C1350 15.3996 1351.8 12.5196 1350 12.8796Z" fill="white" stroke="white" stroke-width="4.40916" stroke-miterlimit="10"/>
<path d="M1356.12 65.9198C1355.76 66.1598 1355.52 66.6398 1355.64 67.1198C1356.24 69.1598 1357.8 65.5598 1356.12 65.9198Z" fill="white" stroke="white" stroke-width="4.40916" stroke-miterlimit="10"/>
<path d="M1371.6 210.88C1371.12 211.12 1370.64 213.04 1371.72 212.56C1372.2 212.32 1372.56 210.4 1371.6 210.88Z" fill="white" stroke="white" stroke-width="4.40916" stroke-miterlimit="10"/>
<path d="M1334.4 188.32C1333.8 188.68 1333.56 190.6 1334.64 190C1335.24 189.64 1335.48 187.72 1334.4 188.32Z" fill="white" stroke="white" stroke-width="4.40916" stroke-miterlimit="10"/>
<path d="M1312.32 28.8397C1311.48 29.0797 1311.48 30.7597 1312.56 30.3997C1313.28 30.0397 1313.4 28.4797 1312.32 28.8397Z" fill="white" stroke="white" stroke-width="4.40916" stroke-miterlimit="10"/>
<path d="M1327.68 137.799C1326.96 138.039 1326.84 139.959 1327.92 139.479C1328.64 139.239 1328.76 137.319 1327.68 137.799Z" fill="white" stroke="white" stroke-width="4.40916" stroke-miterlimit="10"/>
<path d="M1319.76 84.5198C1319.4 84.7598 1319.16 85.2398 1319.16 85.7198C1319.88 87.9998 1321.56 84.1598 1319.76 84.5198Z" fill="white" stroke="white" stroke-width="4.40916" stroke-miterlimit="10"/>
<path d="M1298.4 213.4C1298.04 213.64 1297.8 214.24 1297.8 214.72C1298.4 216.64 1300.2 212.8 1298.4 213.4Z" fill="white" stroke="white" stroke-width="4.40916" stroke-miterlimit="10"/>
<path d="M1290.72 159.76C1290.36 160 1290.12 160.6 1290.12 161.08C1290.96 163.24 1292.52 159.28 1290.72 159.76Z" fill="white" stroke="white" stroke-width="4.40916" stroke-miterlimit="10"/>
<path d="M1281.6 102.88C1280.76 103.12 1280.88 105.16 1281.96 104.8C1282.68 104.56 1282.68 102.4 1281.6 102.88Z" fill="white" stroke="white" stroke-width="4.40916" stroke-miterlimit="10"/>
<path d="M1272.96 44.5596C1272.12 44.7996 1272.12 46.5995 1273.2 46.2395C1274.04 45.9995 1274.04 44.1996 1272.96 44.5596Z" fill="white" stroke="white" stroke-width="4.40916" stroke-miterlimit="10"/>
<path d="M1226.28 5.91942C1225.32 6.03942 1225.32 7.71941 1226.4 7.47941C1227.36 7.35941 1227.36 5.79942 1226.28 5.91942Z" fill="white" stroke="white" stroke-width="4.40916" stroke-miterlimit="10"/>
<path d="M1242.12 118.24C1241.28 118.48 1241.4 120.52 1242.48 120.28C1243.32 120.04 1243.2 118 1242.12 118.24Z" fill="white" stroke="white" stroke-width="4.40916" stroke-miterlimit="10"/>
<path d="M1232.52 57.6393C1231.56 57.8793 1231.8 59.6793 1232.76 59.4393C1233.72 59.3193 1233.6 57.3993 1232.52 57.6393Z" fill="white" stroke="white" stroke-width="4.40916" stroke-miterlimit="10"/>
<path d="M1252.32 178.48C1251.48 178.72 1251.6 180.76 1252.68 180.4C1253.52 180.28 1253.4 178.24 1252.32 178.48Z" fill="white" stroke="white" stroke-width="4.40916" stroke-miterlimit="10"/>
<path d="M1184.76 12.2795C1183.8 12.3995 1183.92 13.9595 1184.88 13.8395C1185.84 13.8395 1185.72 12.1595 1184.76 12.2795Z" fill="white" stroke="white" stroke-width="4.40916" stroke-miterlimit="10"/>
<path d="M1191.6 66.1596C1190.64 66.2796 1191 68.1996 1191.96 68.0796C1192.92 67.9596 1192.56 65.9196 1191.6 66.1596Z" fill="white" stroke="white" stroke-width="4.40916" stroke-miterlimit="10"/>
<path d="M1213.32 191.319C1212.36 191.439 1212.72 193.599 1213.68 193.359C1214.64 193.119 1214.28 191.079 1213.32 191.319Z" fill="white" stroke="white" stroke-width="4.40916" stroke-miterlimit="10"/>
<path d="M1202.04 128.32C1201.08 128.44 1201.44 130.6 1202.4 130.36C1203.48 130.24 1203 128.08 1202.04 128.32Z" fill="white" stroke="white" stroke-width="4.40916" stroke-miterlimit="10"/>
<path d="M1145.16 13.1198C1144.32 13.1198 1144.56 14.7997 1145.28 14.6797C1146.12 14.6797 1145.88 13.1198 1145.16 13.1198Z" fill="white" stroke="white" stroke-width="4.40916" stroke-miterlimit="10"/>
<path d="M1152.24 67.9595C1151.4 67.9595 1151.88 69.9995 1152.6 69.8795C1153.44 69.8795 1152.96 67.8395 1152.24 67.9595Z" fill="white" stroke="white" stroke-width="4.40916" stroke-miterlimit="10"/>
<path d="M1174.92 194.92C1173.96 194.92 1174.56 197.08 1175.28 196.96C1176.24 196.96 1175.64 194.92 1174.92 194.92Z" fill="white" stroke="white" stroke-width="4.40916" stroke-miterlimit="10"/>
<path d="M1163.16 130.6C1162.2 130.6 1162.8 132.76 1163.52 132.76C1164.48 132.76 1163.88 130.6 1163.16 130.6Z" fill="white" stroke="white" stroke-width="4.40916" stroke-miterlimit="10"/>
<path d="M1110.96 11.4395C1110 11.4395 1110.24 12.9996 1111.08 12.9996C1112.04 12.9996 1111.8 11.4395 1110.96 11.4395Z" fill="white" stroke="white" stroke-width="4.40916" stroke-miterlimit="10"/>
<path d="M1116.84 65.0798C1115.88 65.0798 1116.36 66.9999 1117.08 66.9999C1118.04 67.1199 1117.56 65.0798 1116.84 65.0798Z" fill="white" stroke="white" stroke-width="4.40916" stroke-miterlimit="10"/>
<path d="M1136.28 188.8C1135.2 188.68 1135.92 190.84 1136.64 190.84C1137.72 190.96 1137 188.8 1136.28 188.8Z" fill="white" stroke="white" stroke-width="4.40916" stroke-miterlimit="10"/>
<path d="M1126.08 126.159C1125 126.039 1125.72 128.199 1126.44 128.199C1127.52 128.319 1126.8 126.159 1126.08 126.159Z" fill="white" stroke="white" stroke-width="4.40916" stroke-miterlimit="10"/>
<path d="M1094.16 176.44C1092.96 176.2 1093.68 178.24 1094.4 178.36C1095.6 178.6 1094.88 176.56 1094.16 176.44Z" fill="white" stroke="white" stroke-width="4.40916" stroke-miterlimit="10"/>
<path d="M1101.24 232.12C1099.2 231.76 1101.96 235.36 1102.2 233.32C1102.08 232.84 1101.72 232.36 1101.24 232.12Z" fill="white" stroke="white" stroke-width="4.40916" stroke-miterlimit="10"/>
<path d="M1078.08 58.7199C1077 58.5999 1077.48 60.5199 1078.32 60.5199C1079.4 60.6399 1078.92 58.7199 1078.08 58.7199Z" fill="white" stroke="white" stroke-width="4.40916" stroke-miterlimit="10"/>
<path d="M1085.64 116.799C1083.72 116.799 1086.48 120.399 1086.6 117.999C1086.48 117.519 1086.12 116.919 1085.64 116.799Z" fill="white" stroke="white" stroke-width="4.40916" stroke-miterlimit="10"/>
<path d="M1073.76 7.47984C1072.8 7.35984 1073.04 8.91983 1073.88 9.03983C1074.72 9.03983 1074.6 7.47984 1073.76 7.47984Z" fill="white" stroke="white" stroke-width="4.40916" stroke-miterlimit="10"/>
<path d="M1049.76 160.24C1048.44 159.88 1049.16 161.92 1050 162.04C1051.2 162.4 1050.48 160.36 1049.76 160.24Z" fill="white" stroke="white" stroke-width="4.40916" stroke-miterlimit="10"/>
<path d="M1055.52 212.32C1054.2 211.84 1054.92 213.64 1055.64 213.88C1056.96 214.36 1056.24 212.56 1055.52 212.32Z" fill="white" stroke="white" stroke-width="4.40916" stroke-miterlimit="10"/>
<path d="M1037.16 50.4393C1036.08 50.3193 1036.44 52.1194 1037.28 52.1194C1038.48 52.2394 1038 50.4393 1037.16 50.4393Z" fill="white" stroke="white" stroke-width="4.40916" stroke-miterlimit="10"/>
<path d="M1034.28 2.5594C1033.2 2.4394 1033.44 3.87942 1034.28 3.99942C1035.36 4.11942 1035.12 2.5594 1034.28 2.5594Z" fill="white" stroke="white" stroke-width="4.40916" stroke-miterlimit="10"/>
<path d="M1043.04 104.56C1041.84 104.32 1042.44 106.24 1043.28 106.36C1044.48 106.72 1043.76 104.68 1043.04 104.56Z" fill="white" stroke="white" stroke-width="4.40916" stroke-miterlimit="10"/>
<path d="M993.6 -2.12029C992.52 -2.24029 992.64 -0.920244 993.6 -0.800244C994.56 -0.680244 994.44 -2.12029 993.6 -2.12029Z" fill="white" stroke="white" stroke-width="4.40916" stroke-miterlimit="10"/>
<path d="M1008.6 190.36C1007.28 189.88 1007.88 191.56 1008.72 191.8C1010.16 192.28 1009.44 190.6 1008.6 190.36Z" fill="white" stroke="white" stroke-width="4.40916" stroke-miterlimit="10"/>
<path d="M1004.16 142.479C1002.84 142.119 1003.56 143.919 1004.28 144.159C1005.6 144.519 1005 142.599 1004.16 142.479Z" fill="white" stroke="white" stroke-width="4.40916" stroke-miterlimit="10"/>
<path d="M995.16 41.6795C994.08 41.5595 994.44 43.1195 995.28 43.2395C996.36 43.4795 996 41.7995 995.16 41.6795Z" fill="white" stroke="white" stroke-width="4.40916" stroke-miterlimit="10"/>
<path d="M999.12 91.4796C997.08 91.3596 999.72 94.5997 999.96 92.5597C999.96 92.0797 999.6 91.5996 999.12 91.4796Z" fill="white" stroke="white" stroke-width="4.40916" stroke-miterlimit="10"/>
<path d="M1011.12 230.56C1009.32 229.84 1010.88 232.12 1011.72 231.88C1012.44 231.64 1011.48 230.68 1011.12 230.56Z" fill="white" stroke="white" stroke-width="4.40916" stroke-miterlimit="10"/>
<path d="M961.92 168.88C960.6 168.4 961.2 169.96 962.04 170.2C963.36 170.68 962.76 169.12 961.92 168.88Z" fill="white" stroke="white" stroke-width="4.40916" stroke-miterlimit="10"/>
<path d="M952.92 34.3595C951.84 34.2395 952.08 35.6795 952.92 35.7995C954 35.9195 953.76 34.3595 952.92 34.3595Z" fill="white" stroke="white" stroke-width="4.40916" stroke-miterlimit="10"/>
<path d="M958.56 125.439C956.52 125.079 959.16 128.199 959.4 126.519C959.52 126.159 959.04 125.679 958.56 125.439Z" fill="white" stroke="white" stroke-width="4.40916" stroke-miterlimit="10"/>
<path d="M955.2 79.2398C954 78.9998 954.48 80.6799 955.32 80.7999C956.52 81.0399 956.04 79.3598 955.2 79.2398Z" fill="white" stroke="white" stroke-width="4.40916" stroke-miterlimit="10"/>
<path d="M964.08 205.48C962.4 204.76 963.84 206.92 964.68 206.68C965.4 206.44 964.44 205.6 964.08 205.48Z" fill="white" stroke="white" stroke-width="4.40916" stroke-miterlimit="10"/>
<path d="M916.56 150.76C914.52 150.4 917.04 153.04 917.4 151.6C917.4 151.24 917.04 150.88 916.56 150.76Z" fill="white" stroke="white" stroke-width="4.40916" stroke-miterlimit="10"/>
<path d="M914.28 111.64C912.24 111.4 914.76 114.16 915.12 112.48C915.12 112.12 914.76 111.76 914.28 111.64Z" fill="white" stroke="white" stroke-width="4.40916" stroke-miterlimit="10"/>
<path d="M911.52 29.8C910.56 29.8 910.56 31 911.52 31.12C912.48 31.12 912.48 29.8 911.52 29.8Z" fill="white" stroke="white" stroke-width="4.40916" stroke-miterlimit="10"/>
<path d="M912.36 70.1196C911.28 69.9996 911.52 71.4396 912.36 71.4396C913.56 71.5596 913.32 70.2396 912.36 70.1196Z" fill="white" stroke="white" stroke-width="4.40916" stroke-miterlimit="10"/>
<path d="M918.48 183.76C917.28 183.28 917.76 184.48 918.48 184.72C919.8 185.2 919.32 184 918.48 183.76Z" fill="white" stroke="white" stroke-width="4.40916" stroke-miterlimit="10"/>
<path d="M873.96 138.519C872.04 138.399 874.44 140.559 874.68 139.239C874.68 138.879 874.32 138.519 873.96 138.519Z" fill="white" stroke="white" stroke-width="4.40916" stroke-miterlimit="10"/>
<path d="M872.4 103.24C871.32 103.12 871.56 104.44 872.4 104.44C873.48 104.56 873.24 103.24 872.4 103.24Z" fill="white" stroke="white" stroke-width="4.40916" stroke-miterlimit="10"/>
<path d="M871.68 65.9195C870.72 65.9195 870.72 67.1195 871.68 67.1195C872.64 67.1195 872.64 65.9195 871.68 65.9195Z" fill="white" stroke="white" stroke-width="4.40916" stroke-miterlimit="10"/>
<path d="M873.96 -2.1205C873.24 -2.0005 872.88 -1.04052 873.84 -1.16052C874.56 -1.28052 874.92 -2.2405 873.96 -2.1205Z" fill="white" stroke="white" stroke-width="4.40916" stroke-miterlimit="10"/>
<path d="M872.04 29.6797C871.2 29.6797 871.08 30.8797 872.04 30.8797C872.88 30.8797 873 29.6797 872.04 29.6797Z" fill="white" stroke="white" stroke-width="4.40916" stroke-miterlimit="10"/>
<path d="M875.88 168.52C874.8 168.28 875.16 169.24 876 169.36C876.96 169.6 876.6 168.64 875.88 168.52Z" fill="white" stroke="white" stroke-width="4.40916" stroke-miterlimit="10"/>
<path d="M837.84 6.63949C837.12 6.75949 836.76 7.71951 837.72 7.47951C838.44 7.3595 838.8 6.39949 837.84 6.63949Z" fill="white" stroke="white" stroke-width="4.40916" stroke-miterlimit="10"/>
<path d="M835.32 35.6797C834.96 35.7997 834.6 36.0398 834.6 36.3998C834.96 37.5998 837.12 35.5597 835.32 35.6797Z" fill="white" stroke="white" stroke-width="4.40916" stroke-miterlimit="10"/>
<path d="M834.72 134.8C833.76 134.8 833.88 135.88 834.72 135.76C835.8 135.76 835.68 134.8 834.72 134.8Z" fill="white" stroke="white" stroke-width="4.40916" stroke-miterlimit="10"/>
<path d="M834 68.56C833.16 68.68 833.04 69.76 834 69.64C834.84 69.64 834.96 68.44 834 68.56Z" fill="white" stroke="white" stroke-width="4.40916" stroke-miterlimit="10"/>
<path d="M833.76 102.52C832.8 102.52 832.8 103.72 833.76 103.6C834.72 103.6 834.72 102.4 833.76 102.52Z" fill="white" stroke="white" stroke-width="4.40916" stroke-miterlimit="10"/>
<path d="M837 162.64C836.04 162.52 836.28 163.48 837.12 163.48C838.08 163.48 837.84 162.52 837 162.64Z" fill="white" stroke="white" stroke-width="4.40916" stroke-miterlimit="10"/>
<path d="M801.36 -2.48017C800.52 -2.24017 800.16 -1.2802 801.24 -1.7602C802.08 -1.8802 802.56 -2.84017 801.36 -2.48017Z" fill="white" stroke="white" stroke-width="4.40916" stroke-miterlimit="10"/>
<path d="M792.6 137.08C791.52 137.2 791.64 138.16 792.6 138.04C793.68 138.04 793.68 137.08 792.6 137.08Z" fill="white" stroke="white" stroke-width="4.40916" stroke-miterlimit="10"/>
<path d="M798.24 19.7201C797.4 19.9601 796.92 20.8001 798.12 20.5601C798.96 20.3201 799.44 19.3601 798.24 19.7201Z" fill="white" stroke="white" stroke-width="4.40916" stroke-miterlimit="10"/>
<path d="M792 107.44C791.52 107.56 791.16 107.8 791.16 108.04C791.52 109.36 794.04 107.44 792 107.44Z" fill="white" stroke="white" stroke-width="4.40916" stroke-miterlimit="10"/>
<path d="M795.36 46.3596C794.88 46.4796 794.52 46.8396 794.52 47.0796C794.76 48.2796 797.28 46.1196 795.36 46.3596Z" fill="white" stroke="white" stroke-width="4.40916" stroke-miterlimit="10"/>
<path d="M793.08 76.4794C792.24 76.5994 791.88 77.6795 793.08 77.5595C793.92 77.3195 794.16 76.2394 793.08 76.4794Z" fill="white" stroke="white" stroke-width="4.40916" stroke-miterlimit="10"/>
<path d="M795.24 163.24C794.16 163.24 794.4 164.08 795.36 163.96C796.44 163.96 796.2 163.12 795.24 163.24Z" fill="white" stroke="white" stroke-width="4.40916" stroke-miterlimit="10"/>
<path d="M759.6 12.0396C758.76 12.2796 758.4 13.1196 759.48 12.7596C760.44 12.5196 760.8 11.6796 759.6 12.0396Z" fill="white" stroke="white" stroke-width="4.40916" stroke-miterlimit="10"/>
<path d="M749.4 85.4799C748.44 85.5999 748.08 86.5599 749.28 86.4399C750.24 86.3199 750.6 85.3599 749.4 85.4799Z" fill="white" stroke="white" stroke-width="4.40916" stroke-miterlimit="10"/>
<path d="M747.24 141.759C746.16 141.879 746.16 142.719 747.24 142.599C748.32 142.479 748.32 141.639 747.24 141.759Z" fill="white" stroke="white" stroke-width="4.40916" stroke-miterlimit="10"/>
<path d="M747.24 114.04C746.28 114.16 746.04 115.12 747.24 115C748.2 114.88 748.44 113.92 747.24 114.04Z" fill="white" stroke="white" stroke-width="4.40916" stroke-miterlimit="10"/>
<path d="M752.76 57.8798C751.92 57.9998 751.44 58.9598 752.64 58.7198C753.48 58.5998 753.96 57.6398 752.76 57.8798Z" fill="white" stroke="white" stroke-width="4.40916" stroke-miterlimit="10"/>
<path d="M756.48 33.0397C755.64 33.2797 755.16 34.1197 756.36 33.7597C757.2 33.6397 757.68 32.7997 756.48 33.0397Z" fill="white" stroke="white" stroke-width="4.40916" stroke-miterlimit="10"/>
<path d="M750.12 166.48C749.04 166.48 749.28 167.44 750.24 167.2C751.32 167.2 751.08 166.36 750.12 166.48Z" fill="white" stroke="white" stroke-width="4.40916" stroke-miterlimit="10"/>
<path d="M718.44 23.6799C717.6 23.7999 717.24 24.64 718.32 24.4C719.16 24.28 719.52 23.4399 718.44 23.6799Z" fill="white" stroke="white" stroke-width="4.40916" stroke-miterlimit="10"/>
<path d="M709.56 68.0798C709.08 68.1998 708.72 68.4398 708.72 68.6798C708.84 69.6398 711.6 67.8398 709.56 68.0798Z" fill="white" stroke="white" stroke-width="4.40916" stroke-miterlimit="10"/>
<path d="M699.48 147.16C698.4 147.28 698.28 148.12 699.48 148C700.68 147.88 700.68 147.04 699.48 147.16Z" fill="white" stroke="white" stroke-width="4.40916" stroke-miterlimit="10"/>
<path d="M700.8 120.879C699.84 120.999 699.48 121.96 700.68 121.72C701.64 121.6 702 120.759 700.8 120.879Z" fill="white" stroke="white" stroke-width="4.40916" stroke-miterlimit="10"/>
<path d="M704.52 93.9995C703.56 94.1195 703.2 95.0795 704.4 94.8395C705.24 94.8395 705.72 93.8795 704.52 93.9995Z" fill="white" stroke="white" stroke-width="4.40916" stroke-miterlimit="10"/>
<path d="M714.6 44.3197C713.76 44.4397 713.28 45.2797 714.48 45.0397C715.32 44.9197 715.8 44.0797 714.6 44.3197Z" fill="white" stroke="white" stroke-width="4.40916" stroke-miterlimit="10"/>
<path d="M718.08 -0.440426C717.12 -0.200426 717.12 0.639589 718.2 0.399589C719.16 0.159589 719.16 -0.680426 718.08 -0.440426Z" fill="white" stroke="white" stroke-width="4.40916" stroke-miterlimit="10"/>
<path d="M702 171.4C700.8 171.52 701.16 172.36 702.12 172.12C703.32 172.12 703.08 171.16 702 171.4Z" fill="white" stroke="white" stroke-width="4.40916" stroke-miterlimit="10"/>
<path d="M678.12 7.59994C677.16 7.71994 677.28 8.55988 678.24 8.43988C679.2 8.31988 679.08 7.35994 678.12 7.59994Z" fill="white" stroke="white" stroke-width="4.40916" stroke-miterlimit="10"/>
<path d="M678 31.3593C677.16 31.4793 676.8 32.1992 677.88 32.0792C678.72 32.0792 679.08 31.2393 678 31.3593Z" fill="white" stroke="white" stroke-width="4.40916" stroke-miterlimit="10"/>
<path d="M673.08 52.48C672.24 52.6 671.76 53.32 672.84 53.2C673.68 53.08 674.16 52.36 673.08 52.48Z" fill="white" stroke="white" stroke-width="4.40916" stroke-miterlimit="10"/>
<path d="M649.92 152.2C648.84 152.32 648.6 153.16 649.92 153.04C651 152.92 651.12 152.08 649.92 152.2Z" fill="white" stroke="white" stroke-width="4.40916" stroke-miterlimit="10"/>
<path d="M652.92 126.52C651.96 126.52 651.48 127.48 652.8 127.36C653.76 127.36 654.24 126.4 652.92 126.52Z" fill="white" stroke="white" stroke-width="4.40916" stroke-miterlimit="10"/>
<path d="M666.12 75.6394C665.28 75.6394 664.68 76.5994 665.88 76.4794C666.72 76.3594 667.32 75.5194 666.12 75.6394Z" fill="white" stroke="white" stroke-width="4.40916" stroke-miterlimit="10"/>
<path d="M658.8 100.719C657.96 100.719 657.36 101.679 658.56 101.559C659.52 101.439 660.12 100.599 658.8 100.719Z" fill="white" stroke="white" stroke-width="4.40916" stroke-miterlimit="10"/>
<path d="M651.48 176.68C649.2 177.04 652.2 178.12 652.44 176.92C652.44 176.56 651.84 176.56 651.48 176.68Z" fill="white" stroke="white" stroke-width="4.40916" stroke-miterlimit="10"/>
<path d="M639.84 9.7597C638.04 9.8797 640.44 11.3197 640.56 10.2397C640.56 9.87966 640.2 9.7597 639.84 9.7597Z" fill="white" stroke="white" stroke-width="4.40916" stroke-miterlimit="10"/>
<path d="M638.76 33.9996C638.4 33.9996 638.04 34.1196 638.04 34.3596C638.16 35.3196 640.56 34.2396 638.76 33.9996Z" fill="white" stroke="white" stroke-width="4.40916" stroke-miterlimit="10"/>
<path d="M632.16 56.0796C631.8 56.0796 631.32 56.3196 631.32 56.4396C631.32 57.3996 633.96 56.1996 632.16 56.0796Z" fill="white" stroke="white" stroke-width="4.40916" stroke-miterlimit="10"/>
<path d="M598.92 155.68C597.72 155.68 597.48 156.52 598.8 156.52C600 156.52 600.24 155.68 598.92 155.68Z" fill="white" stroke="white" stroke-width="4.40916" stroke-miterlimit="10"/>
<path d="M622.8 79.6002C622.32 79.6002 621.96 79.8401 621.84 80.0801C621.84 81.0401 624.72 79.7202 622.8 79.6002Z" fill="white" stroke="white" stroke-width="4.40916" stroke-miterlimit="10"/>
<path d="M612.84 104.44C612 104.44 611.28 105.28 612.48 105.28C613.44 105.28 614.16 104.44 612.84 104.44Z" fill="white" stroke="white" stroke-width="4.40916" stroke-miterlimit="10"/>
<path d="M604.2 130C603.24 130 602.64 130.84 603.96 130.84C605.04 130.84 605.52 130 604.2 130Z" fill="white" stroke="white" stroke-width="4.40916" stroke-miterlimit="10"/>
<path d="M599.04 181C596.76 181.36 599.64 182.56 600.12 181.36C600 181 599.4 181 599.04 181Z" fill="white" stroke="white" stroke-width="4.40916" stroke-miterlimit="10"/>
<path d="M592.32 54.1597C591.48 54.0397 590.88 54.7598 591.96 54.9998C592.8 55.1198 593.4 54.2797 592.32 54.1597Z" fill="white" stroke="white" stroke-width="4.40916" stroke-miterlimit="10"/>
<path d="M601.08 30.3992C600.24 30.1592 600 30.9992 600.84 31.2392C601.8 31.3592 602.04 30.5192 601.08 30.3992Z" fill="white" stroke="white" stroke-width="4.40916" stroke-miterlimit="10"/>
<path d="M603.6 4.83993C602.64 4.59993 603 5.55994 603.6 5.67994C604.56 5.91994 604.32 4.95993 603.6 4.83993Z" fill="white" stroke="white" stroke-width="4.40916" stroke-miterlimit="10"/>
<path d="M580.2 78.6397C579.72 78.6397 579.36 78.7598 579.24 78.9998C579 80.0798 582 79.1197 580.2 78.6397Z" fill="white" stroke="white" stroke-width="4.40916" stroke-miterlimit="10"/>
<path d="M555.12 130C554.16 129.88 553.44 130.72 554.76 130.84C555.84 130.96 556.44 130 555.12 130Z" fill="white" stroke="white" stroke-width="4.40916" stroke-miterlimit="10"/>
<path d="M547.2 156.52C546 156.52 545.76 157.36 547.08 157.36C548.16 157.36 548.52 156.52 547.2 156.52Z" fill="white" stroke="white" stroke-width="4.40916" stroke-miterlimit="10"/>
<path d="M567 103.96C566.16 103.84 565.32 104.68 566.52 104.8C567.36 104.92 568.2 104.08 567 103.96Z" fill="white" stroke="white" stroke-width="4.40916" stroke-miterlimit="10"/>
<path d="M545.4 183.4C544.2 183.4 544.32 184.36 545.52 184.24C546.72 184.36 546.48 183.28 545.4 183.4Z" fill="white" stroke="white" stroke-width="4.40916" stroke-miterlimit="10"/>
<path d="M554.04 45.5196C553.68 45.3996 553.2 45.5196 553.08 45.7596C552.84 46.9596 555.72 46.3596 554.04 45.5196Z" fill="white" stroke="white" stroke-width="4.40916" stroke-miterlimit="10"/>
<path d="M565.44 19.2394C564.6 18.8794 564.36 19.8394 565.2 20.0794C566.04 20.4394 566.28 19.4794 565.44 19.2394Z" fill="white" stroke="white" stroke-width="4.40916" stroke-miterlimit="10"/>
<path d="M506.16 125.32C505.2 125.08 504.36 126.039 505.68 126.279C506.64 126.399 507.48 125.56 506.16 125.32Z" fill="white" stroke="white" stroke-width="4.40916" stroke-miterlimit="10"/>
<path d="M495 153.28C493.8 153.16 493.44 154.12 494.76 154.24C495.84 154.36 496.32 153.52 495 153.28Z" fill="white" stroke="white" stroke-width="4.40916" stroke-miterlimit="10"/>
<path d="M538.44 71.6798C537.6 71.4398 536.76 72.1598 537.84 72.5198C538.68 72.7598 539.64 72.0398 538.44 71.6798Z" fill="white" stroke="white" stroke-width="4.40916" stroke-miterlimit="10"/>
<path d="M521.64 98.2C520.8 97.96 519.84 98.7999 521.04 99.0399C521.88 99.2799 522.84 98.44 521.64 98.2Z" fill="white" stroke="white" stroke-width="4.40916" stroke-miterlimit="10"/>
<path d="M490.8 182.56C489.48 182.44 489.6 183.64 490.8 183.52C492 183.64 492 182.56 490.8 182.56Z" fill="white" stroke="white" stroke-width="4.40916" stroke-miterlimit="10"/>
<path d="M519.36 30.3997C518.64 30.0397 518.04 30.9997 518.88 31.3597C519.6 31.7197 520.2 30.7597 519.36 30.3997Z" fill="white" stroke="white" stroke-width="4.40916" stroke-miterlimit="10"/>
<path d="M532.2 1.11994C530.52 0.519941 531.96 3.03996 532.68 1.95996C532.8 1.59996 532.56 1.23994 532.2 1.11994Z" fill="white" stroke="white" stroke-width="4.40916" stroke-miterlimit="10"/>
<path d="M466.68 117.88C466.32 117.88 465.96 118 465.84 118.24C465.48 119.68 468.12 118.48 466.68 117.88Z" fill="white" stroke="white" stroke-width="4.40916" stroke-miterlimit="10"/>
<path d="M453.84 148.48C453.48 148.48 453.12 148.72 453.12 148.96C452.88 150.4 455.28 148.84 453.84 148.48Z" fill="white" stroke="white" stroke-width="4.40916" stroke-miterlimit="10"/>
<path d="M502.32 59.3191C501.96 59.1991 501.6 59.3191 501.36 59.5591C500.88 60.8791 503.64 60.0391 502.32 59.3191Z" fill="white" stroke="white" stroke-width="4.40916" stroke-miterlimit="10"/>
<path d="M483.84 88.3598C483.48 88.2398 483.12 88.4798 482.88 88.7198C482.4 90.0398 485.16 88.9598 483.84 88.3598Z" fill="white" stroke="white" stroke-width="4.40916" stroke-miterlimit="10"/>
<path d="M447.96 180.639C447.24 180.639 447.12 181.72 447.96 181.72C448.68 181.72 448.8 180.519 447.96 180.639Z" fill="white" stroke="white" stroke-width="4.40916" stroke-miterlimit="10"/>
<path d="M451.2 82.9599C450.6 82.8399 449.76 83.9199 450.6 84.0399C451.08 84.1599 452.04 83.1999 451.2 82.9599Z" fill="white" stroke="white" stroke-width="4.40916" stroke-miterlimit="10"/>
<path d="M421.2 149.92C420.6 149.92 420 151.12 420.84 151.12C421.44 151.12 422.04 149.92 421.2 149.92Z" fill="white" stroke="white" stroke-width="4.40916" stroke-miterlimit="10"/>
<path d="M486.48 18.0394C485.76 17.7994 485.16 18.8795 486 19.1195C486.6 19.3595 487.2 18.3994 486.48 18.0394Z" fill="white" stroke="white" stroke-width="4.40916" stroke-miterlimit="10"/>
<path d="M434.16 115.96C433.8 115.96 433.44 116.2 433.32 116.56C432.96 118 435.6 116.32 434.16 115.96Z" fill="white" stroke="white" stroke-width="4.40916" stroke-miterlimit="10"/>
<path d="M469.44 50.4397C469.08 50.3197 468.72 50.5597 468.6 50.7997C468.12 52.3597 470.88 51.0397 469.44 50.4397Z" fill="white" stroke="white" stroke-width="4.40916" stroke-miterlimit="10"/>
<path d="M414.72 185.319C414.12 185.439 413.76 186.639 414.6 186.519C415.32 186.399 415.56 185.199 414.72 185.319Z" fill="white" stroke="white" stroke-width="4.40916" stroke-miterlimit="10"/>
<path d="M453.12 9.75928C452.4 9.51928 451.8 10.7193 452.64 10.9593C453.24 11.0793 453.96 9.99928 453.12 9.75928Z" fill="white" stroke="white" stroke-width="4.40916" stroke-miterlimit="10"/>
<path d="M436.56 45.8793C436.2 45.8793 435.84 46.1193 435.72 46.4793C435.24 48.0393 438 46.3593 436.56 45.8793Z" fill="white" stroke="white" stroke-width="4.40916" stroke-miterlimit="10"/>
<path d="M389.4 156.4C389.04 156.52 388.8 156.88 388.68 157.24C388.56 158.68 390.84 156.4 389.4 156.4Z" fill="white" stroke="white" stroke-width="4.40916" stroke-miterlimit="10"/>
<path d="M402.24 118.84C401.76 118.84 400.8 120.04 401.76 120.04C402.24 120.04 403.2 118.84 402.24 118.84Z" fill="white" stroke="white" stroke-width="4.40916" stroke-miterlimit="10"/>
<path d="M418.8 82.12C418.44 82.12 418.08 82.36 417.96 82.72C417.48 84.28 420.12 82.36 418.8 82.12Z" fill="white" stroke="white" stroke-width="4.40916" stroke-miterlimit="10"/>
<path d="M382.68 195.28C382.2 195.4 381.84 196.24 382.2 196.6C382.92 197.08 383.76 195.04 382.68 195.28Z" fill="white" stroke="white" stroke-width="4.40916" stroke-miterlimit="10"/>
<path d="M418.8 5.19972C418.08 5.07972 417.36 6.39969 418.32 6.51969C419.04 6.63969 419.76 5.31972 418.8 5.19972Z" fill="white" stroke="white" stroke-width="4.40916" stroke-miterlimit="10"/>
<path d="M386.16 84.8795C385.68 84.8795 384.72 86.1996 385.56 86.1996C386.16 86.3196 387.12 84.8795 386.16 84.8795Z" fill="white" stroke="white" stroke-width="4.40916" stroke-miterlimit="10"/>
<path d="M358.08 166.36C357.72 166.48 357.48 166.84 357.36 167.2C357.24 168.88 359.52 166.24 358.08 166.36Z" fill="white" stroke="white" stroke-width="4.40916" stroke-miterlimit="10"/>
<path d="M403.08 45.0397C402.48 44.9197 401.64 46.2397 402.48 46.3597C403.08 46.3597 404.04 45.0397 403.08 45.0397Z" fill="white" stroke="white" stroke-width="4.40916" stroke-miterlimit="10"/>
<path d="M370.44 125.2C369.96 125.2 369 126.64 369.96 126.52C370.44 126.52 371.4 125.2 370.44 125.2Z" fill="white" stroke="white" stroke-width="4.40916" stroke-miterlimit="10"/>
<path d="M351.36 208.72C350.88 208.96 350.52 209.68 350.88 210.16C351.6 210.64 352.44 208.48 351.36 208.72Z" fill="white" stroke="white" stroke-width="4.40916" stroke-miterlimit="10"/>
<path d="M383.04 4.00008C382.32 3.88008 381.6 5.32002 382.56 5.44002C383.28 5.56002 384.12 4.12008 383.04 4.00008Z" fill="white" stroke="white" stroke-width="4.40916" stroke-miterlimit="10"/>
<path d="M326.64 178.359C326.28 178.479 326.04 178.959 325.92 179.319C325.92 181.119 328.08 178.239 326.64 178.359Z" fill="white" stroke="white" stroke-width="4.40916" stroke-miterlimit="10"/>
<path d="M338.16 134.079C337.8 134.199 337.44 134.559 337.32 135.039C337.08 136.719 339.6 133.959 338.16 134.079Z" fill="white" stroke="white" stroke-width="4.40916" stroke-miterlimit="10"/>
<path d="M368.52 47.1996C367.92 47.1996 367.08 48.6395 368.04 48.6395C368.52 48.6395 369.48 47.1996 368.52 47.1996Z" fill="white" stroke="white" stroke-width="4.40916" stroke-miterlimit="10"/>
<path d="M352.8 90.3995C352.44 90.5195 352.08 90.8795 351.96 91.2395C351.6 93.0395 354.24 90.5195 352.8 90.3995Z" fill="white" stroke="white" stroke-width="4.40916" stroke-miterlimit="10"/>
<path d="M320.28 223.84C319.8 223.96 319.2 225.64 320.16 225.4C320.76 225.16 321.24 223.6 320.28 223.84Z" fill="white" stroke="white" stroke-width="4.40916" stroke-miterlimit="10"/>
<path d="M294.6 190.959C294.12 191.079 293.4 192.759 294.36 192.519C294.84 192.399 295.56 190.719 294.6 190.959Z" fill="white" stroke="white" stroke-width="4.40916" stroke-miterlimit="10"/>
<path d="M304.92 144.04C304.56 144.16 304.2 144.52 304.08 145C303.96 146.8 306.36 144.04 304.92 144.04Z" fill="white" stroke="white" stroke-width="4.40916" stroke-miterlimit="10"/>
<path d="M332.16 51.8799C331.56 51.8799 330.6 53.4399 331.68 53.4399C332.28 53.4399 333.24 51.8799 332.16 51.8799Z" fill="white" stroke="white" stroke-width="4.40916" stroke-miterlimit="10"/>
<path d="M318 97.7195C317.64 97.8395 317.28 98.1995 317.16 98.6795C316.92 100.48 319.56 97.8395 318 97.7195Z" fill="white" stroke="white" stroke-width="4.40916" stroke-miterlimit="10"/>
<path d="M345.24 6.03979C344.88 6.03979 344.4 6.39981 344.28 6.87981C344.28 8.79981 347.04 6.27979 345.24 6.03979Z" fill="white" stroke="white" stroke-width="4.40916" stroke-miterlimit="10"/>
<path d="M261.36 202.6C260.76 202.72 260.16 204.4 261.12 204.16C261.72 204.16 262.32 202.48 261.36 202.6Z" fill="white" stroke="white" stroke-width="4.40916" stroke-miterlimit="10"/>
<path d="M270.12 154C269.52 154 268.8 155.68 269.76 155.56C270.36 155.56 271.2 153.88 270.12 154Z" fill="white" stroke="white" stroke-width="4.40916" stroke-miterlimit="10"/>
<path d="M281.4 106.119C280.8 106.119 279.96 107.799 281.04 107.679C281.64 107.679 282.48 105.999 281.4 106.119Z" fill="white" stroke="white" stroke-width="4.40916" stroke-miterlimit="10"/>
<path d="M293.52 58.4797C293.16 58.5997 292.68 58.9597 292.56 59.4397C292.56 61.3597 295.32 58.4797 293.52 58.4797Z" fill="white" stroke="white" stroke-width="4.40916" stroke-miterlimit="10"/>
<path d="M304.8 10.84C304.32 10.96 303.96 11.32 303.84 11.68C303.84 13.72 306.72 10.96 304.8 10.84Z" fill="white" stroke="white" stroke-width="4.40916" stroke-miterlimit="10"/>
<path d="M262.92 17.9194C262.56 18.0394 262.08 18.3994 262.08 18.8794C261.96 20.9194 264.72 18.0394 262.92 17.9194Z" fill="white" stroke="white" stroke-width="4.40916" stroke-miterlimit="10"/>
<path d="M234 162.759C233.64 162.879 233.28 163.239 233.16 163.719C233.16 165.639 235.56 162.879 234 162.759Z" fill="white" stroke="white" stroke-width="4.40916" stroke-miterlimit="10"/>
<path d="M253.44 66.1595C252.72 66.1595 252 67.8395 253.08 67.7195C253.92 67.7195 254.64 66.0395 253.44 66.1595Z" fill="white" stroke="white" stroke-width="4.40916" stroke-miterlimit="10"/>
<path d="M226.8 211.72C226.08 211.72 225.72 213.4 226.68 213.4C227.28 213.4 227.76 211.72 226.8 211.72Z" fill="white" stroke="white" stroke-width="4.40916" stroke-miterlimit="10"/>
<path d="M243.36 114.28C243 114.4 242.64 114.76 242.52 115.24C242.4 117.16 245.04 114.4 243.36 114.28Z" fill="white" stroke="white" stroke-width="4.40916" stroke-miterlimit="10"/>
<path d="M220.68 25.2399C220.2 25.3599 219.84 25.72 219.72 26.2C219.84 28.12 222.72 25.3599 220.68 25.2399Z" fill="white" stroke="white" stroke-width="4.40916" stroke-miterlimit="10"/>
<path d="M189.96 216.64C189.12 216.64 188.76 218.32 189.84 218.2C190.8 218.32 191.04 216.64 189.96 216.64Z" fill="white" stroke="white" stroke-width="4.40916" stroke-miterlimit="10"/>
<path d="M212.64 72.7593C212.16 72.7593 211.8 73.2394 211.68 73.5994C211.8 75.6394 214.68 72.8793 212.64 72.7593Z" fill="white" stroke="white" stroke-width="4.40916" stroke-miterlimit="10"/>
<path d="M196.08 168.28C195.24 168.28 194.76 169.84 195.84 169.84C196.68 169.84 197.16 168.28 196.08 168.28Z" fill="white" stroke="white" stroke-width="4.40916" stroke-miterlimit="10"/>
<path d="M204 120.4C203.16 120.4 202.56 121.96 203.76 121.96C204.6 121.96 205.2 120.4 204 120.4Z" fill="white" stroke="white" stroke-width="4.40916" stroke-miterlimit="10"/>
<path d="M178.08 30.8793C177.72 30.8793 177.24 31.3593 177.24 31.7193C177.36 33.6393 180 31.1193 178.08 30.8793Z" fill="white" stroke="white" stroke-width="4.40916" stroke-miterlimit="10"/>
<path d="M152.52 216.04C151.68 215.92 151.56 217.48 152.4 217.6C153.24 217.72 153.36 216.16 152.52 216.04Z" fill="white" stroke="white" stroke-width="4.40916" stroke-miterlimit="10"/>
<path d="M171.48 76.9595C170.64 76.9595 170.16 78.5195 171.24 78.5195C171.96 78.5195 172.44 76.9595 171.48 76.9595Z" fill="white" stroke="white" stroke-width="4.40916" stroke-miterlimit="10"/>
<path d="M164.16 123.04C163.32 123.04 162.96 124.6 163.92 124.6C164.76 124.6 165.12 123.04 164.16 123.04Z" fill="white" stroke="white" stroke-width="4.40916" stroke-miterlimit="10"/>
<path d="M157.56 169.359C156.72 169.239 156.48 170.799 157.32 170.919C158.16 170.919 158.4 169.359 157.56 169.359Z" fill="white" stroke="white" stroke-width="4.40916" stroke-miterlimit="10"/>
<path d="M123.24 166.48C122.4 166.36 122.28 167.92 123.12 167.92C123.96 168.04 124.08 166.48 123.24 166.48Z" fill="white" stroke="white" stroke-width="4.40916" stroke-miterlimit="10"/>
<path d="M119.64 210.88C118.8 210.76 118.92 212.32 119.52 212.32C120.36 212.56 120.36 211 119.64 210.88Z" fill="white" stroke="white" stroke-width="4.40916" stroke-miterlimit="10"/>
<path d="M138.84 34.4797C138 34.4797 137.76 35.9197 138.72 35.9197C139.44 35.9197 139.8 34.3597 138.84 34.4797Z" fill="white" stroke="white" stroke-width="4.40916" stroke-miterlimit="10"/>
<path d="M128.28 122.319C127.44 122.199 127.32 123.759 128.16 123.759C128.88 123.879 129.12 122.319 128.28 122.319Z" fill="white" stroke="white" stroke-width="4.40916" stroke-miterlimit="10"/>
<path d="M133.8 78.3996C132.96 78.3996 132.72 79.8395 133.68 79.8395C134.4 79.8395 134.64 78.3996 133.8 78.3996Z" fill="white" stroke="white" stroke-width="4.40916" stroke-miterlimit="10"/>
<path d="M101.88 35.6799C101.04 35.6799 100.92 36.9999 101.76 36.9999C102.6 37.1199 102.72 35.6799 101.88 35.6799Z" fill="white" stroke="white" stroke-width="4.40916" stroke-miterlimit="10"/>
<path d="M98.64 77.3194C97.8 77.1994 97.68 78.6393 98.52 78.6393C99.24 78.7593 99.48 77.3194 98.64 77.3194Z" fill="white" stroke="white" stroke-width="4.40916" stroke-miterlimit="10"/>
<path d="M89.6399 202.72C88.7999 202.48 89.0399 204.04 89.6399 204.16C90.3599 204.28 90.2399 202.84 89.6399 202.72Z" fill="white" stroke="white" stroke-width="4.40916" stroke-miterlimit="10"/>
<path d="M91.6801 160.72C90.8401 160.6 90.9601 162.04 91.5601 162.16C92.4001 162.16 92.4001 160.72 91.6801 160.72Z" fill="white" stroke="white" stroke-width="4.40916" stroke-miterlimit="10"/>
<path d="M94.9198 118.959C94.0798 118.839 94.0798 120.279 94.7998 120.279C95.6398 120.399 95.7598 118.959 94.9198 118.959Z" fill="white" stroke="white" stroke-width="4.40916" stroke-miterlimit="10"/>
<path d="M64.9198 74.2C64.0798 74.08 64.0798 75.4 64.7998 75.52C65.6398 75.52 65.6398 74.2 64.9198 74.2Z" fill="white" stroke="white" stroke-width="4.40916" stroke-miterlimit="10"/>
<path d="M60.5999 193.119C59.7599 192.879 59.9999 194.319 60.5999 194.439C61.3199 194.679 61.0799 193.239 60.5999 193.119Z" fill="white" stroke="white" stroke-width="4.40916" stroke-miterlimit="10"/>
<path d="M61.3202 153.28C60.4802 153.16 60.6002 154.48 61.3202 154.6C62.1602 154.72 61.9202 153.4 61.3202 153.28Z" fill="white" stroke="white" stroke-width="4.40916" stroke-miterlimit="10"/>
<path d="M66.4801 34.7195C65.6401 34.7195 65.6401 36.0395 66.4801 36.0395C67.3201 36.0395 67.3201 34.7195 66.4801 34.7195Z" fill="white" stroke="white" stroke-width="4.40916" stroke-miterlimit="10"/>
<path d="M62.9999 113.68C62.1599 113.56 62.2799 114.88 62.8799 115C63.7199 115.12 63.7199 113.8 62.9999 113.68Z" fill="white" stroke="white" stroke-width="4.40916" stroke-miterlimit="10"/>
<path d="M31.9198 31.2392C31.0798 31.1192 31.1998 32.4392 31.9198 32.4392C32.7598 32.5592 32.6398 31.2392 31.9198 31.2392Z" fill="white" stroke="white" stroke-width="4.40916" stroke-miterlimit="10"/>
<path d="M30.72 183.76C29.88 183.64 30.12 184.96 30.72 185.08C31.56 185.2 31.32 183.76 30.72 183.76Z" fill="white" stroke="white" stroke-width="4.40916" stroke-miterlimit="10"/>
<path d="M30.5999 145.48C29.7599 145.36 29.9999 146.68 30.5999 146.8C31.4399 146.8 31.1999 145.48 30.5999 145.48Z" fill="white" stroke="white" stroke-width="4.40916" stroke-miterlimit="10"/>
<path d="M30.9599 107.319C30.1199 107.199 30.2399 108.519 30.9599 108.519C31.7999 108.639 31.6799 107.439 30.9599 107.319Z" fill="white" stroke="white" stroke-width="4.40916" stroke-miterlimit="10"/>
<path d="M31.4399 69.2796C30.5999 69.1596 30.7199 70.4796 31.4399 70.4796C32.2799 70.5996 32.2799 69.2796 31.4399 69.2796Z" fill="white" stroke="white" stroke-width="4.40916" stroke-miterlimit="10"/>
<path d="M31.9198 222.16C30.8398 221.92 31.6798 223.84 32.3998 223.36C32.6398 223 32.2798 222.28 31.9198 222.16Z" fill="white" stroke="white" stroke-width="4.40916" stroke-miterlimit="10"/>
<path d="M-1.67976 176.08C-2.51976 175.96 -2.39976 177.28 -1.67976 177.28C-0.719762 177.52 -0.959762 176.2 -1.67976 176.08Z" fill="white" stroke="white" stroke-width="4.40916" stroke-miterlimit="10"/>
<path d="M-2.15974 138.28C-2.99974 138.16 -2.87974 139.48 -2.15974 139.48C-1.31974 139.72 -1.43974 138.4 -2.15974 138.28Z" fill="white" stroke="white" stroke-width="4.40916" stroke-miterlimit="10"/>
<path d="M-2.40002 100.6C-3.36002 100.48 -3.12002 101.8 -2.40002 101.8C-1.56002 101.92 -1.68002 100.6 -2.40002 100.6Z" fill="white" stroke="white" stroke-width="4.40916" stroke-miterlimit="10"/>
<path d="M-2.63977 62.7996C-3.59977 62.6796 -3.35977 63.9996 -2.63977 63.9996C-1.67977 64.2396 -1.79977 62.9196 -2.63977 62.7996Z" fill="white" stroke="white" stroke-width="4.40916" stroke-miterlimit="10"/>
<path d="M-0.599728 214C-1.55973 213.88 -1.31973 215.2 -0.599728 215.2C0.360272 215.44 0.120272 214.12 -0.599728 214Z" fill="white" stroke="white" stroke-width="4.40916" stroke-miterlimit="10"/>
</g>
</g>
<mask id="mask1_2001_466" style="mask-type:luminance" maskUnits="userSpaceOnUse" x="0" y="-506" width="1440" height="960">
<path d="M1440 -506H0V454H1440V-506Z" fill="white"/>
</mask>
<g mask="url(#mask1_2001_466)">
<path d="M-83.8799 182.32C-58.1999 183.52 -32.5199 187.48 -8.51988 196.6C13.2001 204.64 32.7601 217.24 53.8801 226.72C156.12 270.64 268.2 230.32 371.04 208.36C414.12 198.52 457.56 188.92 501.72 186.4C549.36 186.28 596.88 187.72 644.28 181.12C719.16 173.2 794.52 157.84 870.12 165.04C904.8 169.84 937.8 182.32 969.96 196C1051.2 229.12 1128.96 281.8 1218.72 286.6C1313.76 286.12 1369.32 190.72 1455.12 164.56C1499.16 151.12 1507.08 164.44 1537.8 193.36C1567.56 222.4 1594.92 254.08 1627.44 280.12C1639.08 289.96 1652.52 296.56 1665.72 303.76C1681.08 312.88 1695.48 323.68 1709.64 334.6C1767.72 377.92 1821 431.56 1888.8 459.4C1914.84 469.12 1943.04 466.96 1970.28 465.64C2010.48 463.12 2050.32 473.44 2085.96 491.8C2216.76 556.48 2343.36 629.68 2475.24 692.44C2321.52 686.44 2167.8 680.44 2013.96 674.44C1919.4 671.56 1824.84 664.72 1730.16 666.28C1548.36 670 1367.64 698.92 1185.48 692.2C927 678.64 676.56 602.92 419.76 575.32C330.6 565.72 240.6 566.08 151.2 571.36C59.6402 577.12 -31.7998 587.56 -123.6 588.4C-228 589.24 -332.28 581.92 -436.68 578.68C-606.24 572.08 -775.8 565.6 -945.36 558.88C-897.84 534.76 -846.36 519.76 -793.8 511.96C-741.48 503.44 -687 502.36 -637.56 481.36C-551.52 443.2 -500.4 358.84 -429.96 300.28C-400.92 278.56 -366.24 265.96 -334.68 248.44C-302.88 233.8 -273.12 213.64 -239.76 202.96C-188.76 189.28 -133.68 199.24 -83.8799 182.32Z" stroke="white" stroke-width="0.32244" stroke-miterlimit="10" stroke-linecap="round" stroke-linejoin="round"/>
<path d="M-311.4 236.32C-216.84 241 -123 254.32 -28.92 264.64C32.16 269.92 94.0801 280.48 155.4 272.8C225.36 264.04 290.76 234.52 360.48 224.68C437.4 211.36 513.84 231.88 584.4 262C675.96 297.52 767.28 345.88 867.48 347.08C901.32 346.96 933.84 336.16 967.44 333.16C1033.8 325 1100.76 327.04 1167.36 331.48C1355.04 346.48 1543.56 345.04 1731.6 351.76" stroke="white" stroke-width="0.32244" stroke-miterlimit="10" stroke-linecap="round" stroke-linejoin="round"/>
<path d="M-287.4 224.08C-194.76 229 -103.32 245.2 -11.5199 257.32C42.1201 263.08 96.4801 273.16 150.48 267.88C216.36 261.04 276.12 230.32 339.12 212.08C416.64 188.08 485.4 196.12 559.2 227.68C654.48 264.04 746.28 320.68 850.32 325.6C885 327.76 917.28 313.6 951.12 309.04C1002.84 301 1055.52 305.08 1107 313C1162.2 321.4 1217.04 332.92 1272.96 336.4C1413.6 338.44 1553.76 321.4 1694.4 323.2" stroke="white" stroke-width="0.32244" stroke-miterlimit="10" stroke-linecap="round" stroke-linejoin="round"/>
<path d="M-264.6 212.56C-172.08 217.12 -81.1196 236.2 10.4404 249.4C67.5604 256.48 125.88 267.04 183.24 257.44C245.76 247.24 301.92 216.4 362.04 198.16C447 170.32 514.08 186.88 592.56 223.48C676.92 259.12 760.68 312.88 855.12 310.12C887.76 308.92 916.44 291.16 948.48 286.84C993.84 278.68 1040.28 284.8 1084.68 295.36C1136.16 307.48 1187.04 323.56 1240.08 327.64C1381.32 334.36 1520.88 298 1662 301.72" stroke="white" stroke-width="0.32244" stroke-miterlimit="10" stroke-linecap="round" stroke-linejoin="round"/>
<path d="M-240.12 202.84C-146.76 206.44 -55.6801 228.64 36.3599 242.2C93.5999 249.76 152.28 257.92 209.52 246.88C267.84 236.08 321.84 210.64 378.72 194.92C467.16 168.04 534.6 185.68 616.32 222.28C693.36 253.72 771.72 299.08 857.64 292.72C889.08 289.48 917.16 272.56 948.84 270.4C998.76 264.28 1048.44 276.64 1096.2 290.08C1161.24 310.36 1228.92 322.12 1297.2 317.2C1409.88 311.68 1520.76 279.04 1634.16 285.28" stroke="white" stroke-width="0.32244" stroke-miterlimit="10" stroke-linecap="round" stroke-linejoin="round"/>
<path d="M-208.2 197.2C-71.8797 201.28 59.4003 261.28 196.8 247C262.68 238.96 324.48 212.92 388.44 196.72C491.4 167.08 569.76 193.84 666 228.88C729.72 250.48 796.56 275.32 864.72 265.84C881.28 263.68 896.88 256.96 913.32 254.2C934.2 250.36 955.68 249.88 976.8 251.92C1062.6 260.68 1140.6 307 1227.48 309.28C1355.64 317.44 1476.72 253.12 1604.76 260.32" stroke="white" stroke-width="0.32244" stroke-miterlimit="10" stroke-linecap="round" stroke-linejoin="round"/>
<path d="M-172.68 194.2C-82.5597 196.36 1.44029 233.2 89.8803 245.44C217.44 268.36 326.4 208.84 448.8 190.6C565.32 174.52 676.08 227.56 790.8 237.4C813.36 239.32 836.16 239.56 858.72 236.68C880.68 233.56 902.04 227.08 924.36 227.68C1023.84 228.28 1109.88 290.44 1207.32 302.44C1335.36 318.64 1447.56 226.12 1574.52 230.68" stroke="white" stroke-width="0.32244" stroke-miterlimit="10" stroke-linecap="round" stroke-linejoin="round"/>
<path d="M-137.4 191.92C-55.9199 192.88 16.0801 235.48 95.4001 247.48C240.24 272.92 374.88 186.64 518.52 191.08C605.16 192.04 690.96 208 777.48 210.04C805.8 210.64 834.36 209.68 862.44 205.84C892.44 200.08 923.28 202.12 952.92 209.2C1046.16 230.92 1128.24 290.92 1224.84 299.44C1265.16 300.88 1304.4 288.04 1340.88 271.96C1406.88 243.64 1470.84 199.48 1545.24 200.8" stroke="white" stroke-width="0.32244" stroke-miterlimit="10" stroke-linecap="round" stroke-linejoin="round"/>
<path d="M-106.44 188.56C-77.0399 190 -47.7599 195.28 -20.1599 205.48C10.4401 216.64 39.24 232.72 70.92 241.12C171.72 269.2 274.56 234.52 372.84 211.96C410.52 203.08 448.68 194.92 487.32 192.04C516.96 190 546.72 192.16 576.48 191.56C646.44 191.32 716.52 189.52 786.36 185.44C852.96 181.36 894.6 171.52 960.12 196.96C1048.44 227.08 1128.6 285.04 1223.16 294.4C1270.44 295.36 1313.76 272.2 1352.76 247.72C1403.88 216.28 1455.72 175 1518.72 175.72" stroke="white" stroke-width="0.32244" stroke-miterlimit="10" stroke-linecap="round" stroke-linejoin="round"/>
<path d="M1421.04 178.84C1461.48 205.96 1488.24 248.8 1525.32 279.88C1541.16 294.4 1560.36 303.88 1578 316.12C1606.56 335.44 1634.4 355.6 1662.6 375.4C1712.76 408.28 1761.36 453.88 1824.96 453.4C1851.96 454.6 1879.08 455.68 1905.24 463.24C1966.32 482.08 2019.48 520 2074.8 551.2C2152.44 597.76 2230.2 644.2 2310.6 685.96" stroke="white" stroke-width="0.32244" stroke-miterlimit="10" stroke-linecap="round" stroke-linejoin="round"/>
<path d="M1386.84 200.56C1423.32 224.68 1445.76 264.52 1479.84 291.52C1544.88 335.8 1614.12 374.2 1681.2 415.48C1735.44 452.68 1805.64 438.4 1863.96 465.16C1919.52 489.64 1969.56 525.04 2021.04 557.2C2088.72 600.88 2156.88 644.08 2227.68 682.72" stroke="white" stroke-width="0.32244" stroke-miterlimit="10" stroke-linecap="round" stroke-linejoin="round"/>
<path d="M1353.36 225.52C1383.96 244.96 1401 279.4 1429.8 301.12C1477.8 334 1533.24 354.64 1584.36 382.24C1613.4 396.04 1639.92 415.72 1671.24 424.36C1719.12 437.08 1769.52 441.64 1813.92 465.16C1929 528.64 2029.32 615.64 2144.4 679.36" stroke="white" stroke-width="0.32244" stroke-miterlimit="10" stroke-linecap="round" stroke-linejoin="round"/>
<path d="M1018.68 218.08C1047 227.68 1035.84 265.36 1055.04 282.76C1068.72 295.72 1077.36 313.6 1089.6 328C1107.48 351.04 1128.72 371.56 1152.96 387.88C1185.84 407.92 1221.48 423.16 1252.08 447.16C1341.72 511.24 1401.6 605.68 1480.56 681.28" stroke="white" stroke-width="0.32244" stroke-miterlimit="10" stroke-linecap="round" stroke-linejoin="round"/>
<path d="M971.04 196.48C995.88 206.2 995.16 237.16 1002.84 258.64C1005.24 268.12 1011.48 274.48 1017.48 281.68C1020.6 286.96 1023.36 292.48 1026 298.12C1045.08 342.52 1070.28 389.32 1116.12 410.56C1238.52 468.64 1306.92 593.2 1398.48 687.4" stroke="white" stroke-width="0.32244" stroke-miterlimit="10" stroke-linecap="round" stroke-linejoin="round"/>
<path d="M924.36 178.36C952.2 192.04 950.76 228.76 959.16 254.56C961.44 268.24 972 276.88 976.56 289.36C989.4 326.68 996.12 368.8 1026.36 397C1038.72 409.72 1054.56 417.52 1070.64 424.24C1086.6 432.04 1101.6 442 1115.28 453.28C1192.68 522.88 1247.28 613.24 1315.08 691.6" stroke="white" stroke-width="0.32244" stroke-miterlimit="10" stroke-linecap="round" stroke-linejoin="round"/>
<path d="M879.6 166.48C911.16 187.36 906.36 232.72 916.08 265.24C918 277.72 926.76 286.72 930 298.6C935.64 320.2 936.6 343 944.16 364.24C953.16 394.6 978.36 416.44 1008.12 425.68C1057.68 446.2 1088.52 492.04 1118.28 534.28C1156.8 586.36 1191.36 640.84 1230.12 692.8" stroke="white" stroke-width="0.32244" stroke-miterlimit="10" stroke-linecap="round" stroke-linejoin="round"/>
<path d="M837 163.12C864.6 188.2 861.84 230.92 867.84 265C869.04 282.16 874.08 297.88 879.96 313.6C882.84 328.96 882.96 344.8 886.44 360.04C901.68 431.56 956.64 408.28 999.84 460.84C1057.68 530.2 1092.12 614.68 1141.92 689.56" stroke="white" stroke-width="0.32244" stroke-miterlimit="10" stroke-linecap="round" stroke-linejoin="round"/>
<path d="M795.48 164.2C821.52 196.36 816.72 242.08 820.92 280.84C821.52 291.16 822.96 301.36 825.36 311.32C827.4 329.44 828.48 348.04 834.36 365.44C848.52 414.76 886.56 408.88 919.08 438.52C953.28 469.6 975.48 512.32 995.28 553.48C1009.08 596.08 1018.08 640.36 1042.68 678.88" stroke="white" stroke-width="0.32244" stroke-miterlimit="10" stroke-linecap="round" stroke-linejoin="round"/>
<path d="M754.44 167.68C791.04 225.52 749.28 305.92 784.56 369.28C815.28 427.6 857.64 391 910.68 511.96C919.92 535.36 915.84 560.68 916.08 585.28C915.96 611.8 921.96 637.96 933.48 662.08" stroke="white" stroke-width="0.32244" stroke-miterlimit="10" stroke-linecap="round" stroke-linejoin="round"/>
<path d="M713.64 172.36C729.36 198.28 722.04 231.04 716.04 259C712.2 273.28 707.28 286.48 711.48 301.48C734.4 417.4 785.88 379.36 824.88 461.56C857.64 519.4 791.28 567.04 818.52 641.44" stroke="white" stroke-width="0.32244" stroke-miterlimit="10" stroke-linecap="round" stroke-linejoin="round"/>
<path d="M672.84 177.64C683.52 197.44 672.96 220.72 661.8 238C653.52 249.16 647.88 254.68 651.12 269.8C656.64 301.96 669.96 333.28 686.52 361.24C710.16 398.8 742.44 394.12 755.88 448.6C759.84 503.56 687.24 548.56 701.52 619.72" stroke="white" stroke-width="0.32244" stroke-miterlimit="10" stroke-linecap="round" stroke-linejoin="round"/>
<path d="M631.8 182.32C638.4 198.16 620.76 208.72 609 215.2C603.48 219.04 594.84 220.12 592.68 227.2C586.2 256.96 627.96 343 646.68 368.56C714.12 418.96 664.68 459.04 626.52 507.16C605.76 533.44 584.88 563.92 586.32 598.84" stroke="white" stroke-width="0.32244" stroke-miterlimit="10" stroke-linecap="round" stroke-linejoin="round"/>
<path d="M590.28 185.68C592.68 205.48 539.64 187.36 535.56 205.72C532.44 240.16 558.96 279.88 571.68 311.56C578.76 325.48 583.68 340.6 589.56 354.52C595.08 363.76 604.56 370 604.92 381.88C615.96 422.32 559.44 458.92 535.2 486.88C509.52 513.52 480.6 543.4 476.76 581.92" stroke="white" stroke-width="0.32244" stroke-miterlimit="10" stroke-linecap="round" stroke-linejoin="round"/>
<path d="M548.04 186.64C548.64 201.52 508.8 177.28 486.48 185.68C462.24 200.56 527.28 294.28 531.48 320.56C534.24 328.6 533.16 336.52 533.88 344.56C535.44 353.08 536.52 361 535.68 369.76C537.36 391.36 523.68 408.52 508.32 422.8C488.76 441.76 466.8 458.92 446.28 477.16C417.84 503.32 384.6 531.52 376.56 570.88" stroke="white" stroke-width="0.32244" stroke-miterlimit="10" stroke-linecap="round" stroke-linejoin="round"/>
<path d="M504.12 186.28C500.64 202.36 465.36 173.44 436.56 184.12C411.96 198.64 471.12 279.28 469.68 306.4C467.64 329.56 468.72 352.24 465.72 375.4C461.76 410.2 390.48 452.32 364.08 477.52C334.8 502.96 301.8 529.84 289.44 567.64" stroke="white" stroke-width="0.32244" stroke-miterlimit="10" stroke-linecap="round" stroke-linejoin="round"/>
<path d="M456.48 191.2C453 199.36 444.12 196 437.88 193.48C425.52 188.44 411.84 186.04 398.52 188.8C365.28 192.64 394.8 242.08 398.4 260.92C402 273.64 407.16 287.8 401.88 300.52C400.92 313.24 400.44 325.6 399.6 338.2C396.36 388.72 393.36 394.84 354.24 428.08C305.04 471.4 242.4 507.4 213 568.36" stroke="white" stroke-width="0.32244" stroke-miterlimit="10" stroke-linecap="round" stroke-linejoin="round"/>
<path d="M405.96 200.56C401.52 210.4 391.92 203.68 384.96 201.16C374.4 196.96 363 198.28 352.2 201.4C327.24 208.12 342.48 240.64 344.16 258.4C347.16 271.84 346.8 285.16 340.56 297.52C338.64 311.8 336.36 325.84 333.36 339.88C322.68 393.04 323.76 398.2 280.92 434.8C233.04 477.16 175.56 514.24 144.12 571.6" stroke="white" stroke-width="0.32244" stroke-miterlimit="10" stroke-linecap="round" stroke-linejoin="round"/>
<path d="M353.76 212.32C347.76 225.52 338.4 209.44 328.08 211.96C280.2 216.4 299.76 248.56 292.08 281.08C290.88 287.32 286.2 291.4 284.04 297.16C282.48 303.4 280.68 309.64 278.88 315.76C272.76 335.44 264.96 354.4 258.12 373.84C252.96 393.52 243.36 410.8 228 424.72C178.32 474.52 116.16 514.84 79.4399 576.28" stroke="white" stroke-width="0.32244" stroke-miterlimit="10" stroke-linecap="round" stroke-linejoin="round"/>
<path d="M300.96 224.8C293.16 240.16 296.4 217.72 275.64 229.84C269.4 232.96 261.96 234.4 257.4 240.16C247.56 251.8 248.64 268.24 242.16 281.56C239.64 288.88 233.52 293.68 229.92 300.28C225.48 311.2 220.44 321.88 215.04 332.32C206.4 348.88 197.16 365.08 188.76 381.88C180.36 400.48 170.64 418.12 155.76 432.52C108.84 481.6 52.6803 523.6 15.3604 581.32" stroke="white" stroke-width="0.32244" stroke-miterlimit="10" stroke-linecap="round" stroke-linejoin="round"/>
<path d="M52.9202 226.24C39.7202 238.36 21.4802 228.88 6.12017 234.04C-6.11983 238 -15.1198 248.2 -26.7598 253.72C-42.9598 262.6 -60.3598 269.32 -76.6798 278.08C-139.32 310.96 -180.12 371.799 -234.72 415.359C-310.8 478.119 -404.04 514.96 -481.32 576.52" stroke="white" stroke-width="0.32244" stroke-miterlimit="10" stroke-linecap="round" stroke-linejoin="round"/>
<path d="M30.9602 215.32C9.12022 229.24 -18.5998 218.44 -42.2398 226.6C-56.3998 230.92 -67.4398 241.6 -80.7598 247.96C-102.12 259.36 -124.32 268.84 -145.2 281.08C-208.44 316.84 -248.16 381.16 -304.56 425.8C-345.48 460.96 -395.88 481 -444.72 502.72C-489.48 522.52 -532.8 545.32 -573.36 573.04" stroke="white" stroke-width="0.32244" stroke-miterlimit="10" stroke-linecap="round" stroke-linejoin="round"/>
<path d="M9.24019 204.28C-20.7598 219.16 -56.2798 209.08 -87.9598 218.2C-106.56 222.76 -121.08 235.84 -138.12 243.88C-167.64 259.36 -197.76 273.76 -225.84 291.76C-292.08 340.36 -335.28 415.96 -406.2 459.28C-446.76 483.16 -492.84 494.56 -537 510.04C-581.88 525.28 -625.32 544.6 -665.88 569.44" stroke="white" stroke-width="0.32244" stroke-miterlimit="10" stroke-linecap="round" stroke-linejoin="round"/>
<path d="M1420.68 178.721C1419.48 179.441 1421.4 179.44 1421.64 178.84C1421.88 178.24 1420.92 178.481 1420.68 178.721Z" fill="white" stroke="white" stroke-width="2.57964" stroke-miterlimit="10"/>
<path d="M1441.2 194.201C1440.24 194.681 1441.2 195.161 1441.92 194.801C1442.88 194.321 1441.8 193.841 1441.2 194.201Z" fill="white" stroke="white" stroke-width="2.57964" stroke-miterlimit="10"/>
<path d="M1386.48 200.44C1385.64 201.04 1386.6 201.281 1387.08 200.801C1388.04 200.081 1387.08 199.84 1386.48 200.44Z" fill="white" stroke="white" stroke-width="2.57964" stroke-miterlimit="10"/>
<path d="M1404.72 214.24C1403.76 214.84 1404.6 215.32 1405.32 214.84C1406.28 214.24 1405.44 213.76 1404.72 214.24Z" fill="white" stroke="white" stroke-width="2.57964" stroke-miterlimit="10"/>
<path d="M1353 225.28C1352.16 225.88 1353 226.12 1353.6 225.64C1354.44 225.04 1353.6 224.8 1353 225.28Z" fill="white" stroke="white" stroke-width="2.57964" stroke-miterlimit="10"/>
<path d="M1018.44 217.96C1016.88 217.24 1019.04 218.2 1019.52 218.44C1019.76 218.56 1018.68 218.08 1018.44 217.96Z" fill="white" stroke="white" stroke-width="2.57964" stroke-miterlimit="10"/>
<path d="M1030.92 226.121C1028.88 225.281 1031.76 226.841 1031.88 226.721C1031.76 226.601 1031.4 226.361 1030.92 226.121Z" fill="white" stroke="white" stroke-width="2.57964" stroke-miterlimit="10"/>
<path d="M970.8 196.36C969.36 195.76 971.4 196.6 971.88 196.84C972.12 196.84 971.04 196.36 970.8 196.36Z" fill="white" stroke="white" stroke-width="2.57964" stroke-miterlimit="10"/>
<path d="M992.4 220.601C990.36 220.001 993.12 221.681 993.36 221.201C993.24 220.961 992.88 220.721 992.4 220.601Z" fill="white" stroke="white" stroke-width="2.57964" stroke-miterlimit="10"/>
<path d="M984.48 205.96C982.44 205.24 985.44 206.8 985.44 206.56C985.32 206.32 984.84 206.08 984.48 205.96Z" fill="white" stroke="white" stroke-width="2.57964" stroke-miterlimit="10"/>
<path d="M924.12 178.24C922.68 177.76 924.84 178.481 925.2 178.601C925.32 178.601 924.36 178.36 924.12 178.24Z" fill="white" stroke="white" stroke-width="2.57964" stroke-miterlimit="10"/>
<path d="M953.28 229C951.24 229 954 230.32 954.12 229.48C954.12 229.36 953.64 229.12 953.28 229Z" fill="white" stroke="white" stroke-width="2.57964" stroke-miterlimit="10"/>
<path d="M947.52 207.76C945.48 207.52 948.36 209.08 948.48 208.24C948.36 208.12 948 207.88 947.52 207.76Z" fill="white" stroke="white" stroke-width="2.57964" stroke-miterlimit="10"/>
<path d="M938.64 189.76C936.72 189.28 939.6 190.72 939.6 190.24C939.48 190.12 939.12 189.88 938.64 189.76Z" fill="white" stroke="white" stroke-width="2.57964" stroke-miterlimit="10"/>
<path d="M879.24 166.36C877.92 166.12 879.96 166.72 880.32 166.72C880.44 166.6 879.48 166.48 879.24 166.36Z" fill="white" stroke="white" stroke-width="2.57964" stroke-miterlimit="10"/>
<path d="M908.88 227.92C907.8 228.04 908.04 228.88 909 228.76C910.2 228.76 909.84 227.8 908.88 227.92Z" fill="white" stroke="white" stroke-width="2.57964" stroke-miterlimit="10"/>
<path d="M893.88 180.28C892.68 180.16 893.52 180.88 894.24 180.88C895.56 181 894.6 180.28 893.88 180.28Z" fill="white" stroke="white" stroke-width="2.57964" stroke-miterlimit="10"/>
<path d="M903 202.12C901.8 202.12 902.28 202.96 903.24 202.96C904.44 202.96 903.96 202.12 903 202.12Z" fill="white" stroke="white" stroke-width="2.57964" stroke-miterlimit="10"/>
<path d="M836.64 162.88C835.08 163 837.72 163.6 837.72 163.12C837.48 163 837 162.88 836.64 162.88Z" fill="white" stroke="white" stroke-width="2.57964" stroke-miterlimit="10"/>
<path d="M850.56 180.4C849.36 180.52 850.08 181.24 850.92 181.12C852 181 851.4 180.28 850.56 180.4Z" fill="white" stroke="white" stroke-width="2.57964" stroke-miterlimit="10"/>
<path d="M859.08 205.841C858 205.961 858.24 206.921 859.32 206.801C860.4 206.681 860.04 205.721 859.08 205.841Z" fill="white" stroke="white" stroke-width="2.57964" stroke-miterlimit="10"/>
<path d="M795.24 163.96C793.8 164.2 795.72 164.68 796.2 164.32C796.44 163.96 795.48 163.96 795.24 163.96Z" fill="white" stroke="white" stroke-width="2.57964" stroke-miterlimit="10"/>
<path d="M807.36 183.52C805.44 183.88 808.32 184.84 808.32 183.88C808.2 183.64 807.72 183.52 807.36 183.52Z" fill="white" stroke="white" stroke-width="2.57964" stroke-miterlimit="10"/>
<path d="M814.32 209.441C812.28 209.801 815.04 211.121 815.28 209.921C815.28 209.561 814.8 209.441 814.32 209.441Z" fill="white" stroke="white" stroke-width="2.57964" stroke-miterlimit="10"/>
<path d="M754.2 167.32C752.76 167.56 754.56 168.16 755.04 167.68C755.52 167.44 754.44 167.32 754.2 167.32Z" fill="white" stroke="white" stroke-width="2.57964" stroke-miterlimit="10"/>
<path d="M768.84 209.441C767.64 209.441 767.88 210.281 768.96 210.281C770.16 210.281 769.92 209.441 768.84 209.441Z" fill="white" stroke="white" stroke-width="2.57964" stroke-miterlimit="10"/>
<path d="M763.92 186.16C761.88 186.52 764.76 187.36 764.88 186.52C764.76 186.28 764.4 186.16 763.92 186.16Z" fill="white" stroke="white" stroke-width="2.57964" stroke-miterlimit="10"/>
<path d="M713.4 172.24C711.96 172.48 713.64 172.96 714.24 172.6C714.72 172.12 713.76 172.12 713.4 172.24Z" fill="white" stroke="white" stroke-width="2.57964" stroke-miterlimit="10"/>
<path d="M721.92 226.72C720.72 226.48 720.72 227.2 721.8 227.32C723.12 227.68 723.12 226.96 721.92 226.72Z" fill="white" stroke="white" stroke-width="2.57964" stroke-miterlimit="10"/>
<path d="M722.88 206.92C721.8 206.8 721.8 207.52 722.88 207.52C724.08 207.64 723.96 206.92 722.88 206.92Z" fill="white" stroke="white" stroke-width="2.57964" stroke-miterlimit="10"/>
<path d="M720.48 188.201C719.4 188.201 719.64 188.801 720.6 188.801C721.68 188.801 721.44 188.201 720.48 188.201Z" fill="white" stroke="white" stroke-width="2.57964" stroke-miterlimit="10"/>
<path d="M672.72 177.4C671.28 177.64 672.96 178 673.44 177.64C673.92 177.4 672.96 177.4 672.72 177.4Z" fill="white" stroke="white" stroke-width="2.57964" stroke-miterlimit="10"/>
<path d="M667.2 229.001C666 228.521 665.64 229.001 666.96 229.361C668.16 229.841 668.4 229.481 667.2 229.001Z" fill="white" stroke="white" stroke-width="2.57964" stroke-miterlimit="10"/>
<path d="M673.08 216.16C672 215.92 671.76 216.28 672.96 216.64C674.04 216.88 674.28 216.4 673.08 216.16Z" fill="white" stroke="white" stroke-width="2.57964" stroke-miterlimit="10"/>
<path d="M676.68 202.84C675.6 202.72 675.48 203.2 676.56 203.32C677.64 203.44 677.76 202.96 676.68 202.84Z" fill="white" stroke="white" stroke-width="2.57964" stroke-miterlimit="10"/>
<path d="M676.8 189.76C675.72 189.76 675.84 190.24 676.8 190.24C678 190.12 677.88 189.76 676.8 189.76Z" fill="white" stroke="white" stroke-width="2.57964" stroke-miterlimit="10"/>
<path d="M631.68 182.201C630 182.441 632.16 182.801 632.52 182.321C632.4 182.201 631.92 182.201 631.68 182.201Z" fill="white" stroke="white" stroke-width="2.57964" stroke-miterlimit="10"/>
<path d="M605.28 217.24C604.68 217 604.2 216.88 604.08 216.88C604.08 217.36 607.68 218.44 605.28 217.24Z" fill="white" stroke="white" stroke-width="2.57964" stroke-miterlimit="10"/>
<path d="M615.84 211.36C614.88 211 614.16 211.12 615.48 211.6C616.44 211.84 617.16 211.84 615.84 211.36Z" fill="white" stroke="white" stroke-width="2.57964" stroke-miterlimit="10"/>
<path d="M624.36 205.121C623.88 205.001 623.4 205.001 623.4 205.001C623.52 205.361 626.64 205.601 624.36 205.121Z" fill="white" stroke="white" stroke-width="2.57964" stroke-miterlimit="10"/>
<path d="M594.36 223.96C593.04 223.36 592.68 223.72 594.12 224.32C595.32 224.92 595.8 224.56 594.36 223.96Z" fill="white" stroke="white" stroke-width="2.57964" stroke-miterlimit="10"/>
<path d="M630.48 198.28C630 198.28 629.641 198.28 629.521 198.28C629.641 198.64 632.64 198.64 630.48 198.28Z" fill="white" stroke="white" stroke-width="2.57964" stroke-miterlimit="10"/>
<path d="M633.12 190.841C632.16 190.841 632.04 191.081 633.12 191.081C634.08 191.081 634.2 190.721 633.12 190.841Z" fill="white" stroke="white" stroke-width="2.57964" stroke-miterlimit="10"/>
<path d="M590.28 185.56C588.72 185.68 590.28 185.92 590.88 185.8C591.36 185.56 590.4 185.56 590.28 185.56Z" fill="white" stroke="white" stroke-width="2.57964" stroke-miterlimit="10"/>
<path d="M584.52 194.2C584.04 194.2 583.68 194.2 583.56 194.2C583.68 194.32 586.68 194.44 584.52 194.2Z" fill="white" stroke="white" stroke-width="2.57964" stroke-miterlimit="10"/>
<path d="M565.56 196.001C564.72 195.761 563.76 195.641 565.2 196.001C565.92 196.241 566.88 196.361 565.56 196.001Z" fill="white" stroke="white" stroke-width="2.57964" stroke-miterlimit="10"/>
<path d="M552.24 197.08C551.76 196.96 551.16 196.72 551.04 196.84C551.04 197.08 554.52 197.92 552.24 197.08Z" fill="white" stroke="white" stroke-width="2.57964" stroke-miterlimit="10"/>
<path d="M538.2 201.04C537 200.56 536.52 200.92 537.84 201.4C539.04 201.88 539.52 201.64 538.2 201.04Z" fill="white" stroke="white" stroke-width="2.57964" stroke-miterlimit="10"/>
<path d="M576.48 195.4C576 195.28 575.52 195.28 575.4 195.28C575.52 195.4 578.52 195.88 576.48 195.4Z" fill="white" stroke="white" stroke-width="2.57964" stroke-miterlimit="10"/>
<path d="M589.32 191.32C588.36 191.32 588.12 191.44 589.2 191.44C590.16 191.44 590.4 191.32 589.32 191.32Z" fill="white" stroke="white" stroke-width="2.57964" stroke-miterlimit="10"/>
<path d="M535.08 218.2C532.56 217.48 535.8 219.76 536.16 218.92C536.16 218.68 535.68 218.44 535.08 218.2Z" fill="white" stroke="white" stroke-width="2.57964" stroke-miterlimit="10"/>
<path d="M548.04 186.521C547.8 186.521 546.84 186.641 547.44 186.761C548.04 186.881 549.6 186.641 548.04 186.521Z" fill="white" stroke="white" stroke-width="2.57964" stroke-miterlimit="10"/>
<path d="M529.68 189.281C529.2 189.281 528.72 189.161 528.6 189.161C528.72 189.041 531.72 189.401 529.68 189.281Z" fill="white" stroke="white" stroke-width="2.57964" stroke-miterlimit="10"/>
<path d="M517.2 186.04C516.72 185.92 516.241 185.92 516.121 185.92C516.001 185.92 519.12 186.4 517.2 186.04Z" fill="white" stroke="white" stroke-width="2.57964" stroke-miterlimit="10"/>
<path d="M501.72 184.24C501 184.12 499.8 184 501.12 184.24C501.96 184.36 503.16 184.48 501.72 184.24Z" fill="white" stroke="white" stroke-width="2.57964" stroke-miterlimit="10"/>
<path d="M485.04 186.641C484.56 186.521 483.96 186.521 483.96 186.641C483.84 187.001 487.2 187.121 485.04 186.641Z" fill="white" stroke="white" stroke-width="2.57964" stroke-miterlimit="10"/>
<path d="M539.28 191.68C538.8 191.68 538.44 191.68 538.32 191.68C538.44 191.56 541.2 191.68 539.28 191.68Z" fill="white" stroke="white" stroke-width="2.57964" stroke-miterlimit="10"/>
<path d="M489.84 229.24C488.4 229 489.48 230.08 490.32 230.2C491.64 230.56 490.56 229.36 489.84 229.24Z" fill="white" stroke="white" stroke-width="2.57964" stroke-miterlimit="10"/>
<path d="M545.4 191.44C544.92 191.44 544.56 191.44 544.56 191.44C544.68 191.56 547.44 191.44 545.4 191.44Z" fill="white" stroke="white" stroke-width="2.57964" stroke-miterlimit="10"/>
<path d="M481.2 202.48C479.76 202.24 480.24 203.08 481.32 203.2C482.64 203.44 482.16 202.6 481.2 202.48Z" fill="white" stroke="white" stroke-width="2.57964" stroke-miterlimit="10"/>
<path d="M504.24 186.04C504 186.04 503.76 186.04 503.64 186.16C502.8 186.4 504.48 186.4 504.72 186.28C505.44 186.16 504.48 186.04 504.24 186.04Z" fill="white" stroke="white" stroke-width="2.57964" stroke-miterlimit="10"/>
<path d="M470.16 184C469.68 184 469.2 184 469.08 184C469.08 183.76 472.08 183.88 470.16 184Z" fill="white" stroke="white" stroke-width="2.57964" stroke-miterlimit="10"/>
<path d="M454.2 181.96C453.6 181.96 452.28 182.08 453.6 181.96C454.32 181.96 455.64 181.84 454.2 181.96Z" fill="white" stroke="white" stroke-width="2.57964" stroke-miterlimit="10"/>
<path d="M483.12 187.84C482.64 187.84 482.16 187.84 482.04 187.84C482.04 187.6 485.16 187.72 483.12 187.84Z" fill="white" stroke="white" stroke-width="2.57964" stroke-miterlimit="10"/>
<path d="M492.96 190.96C492.48 190.96 492 190.96 492 190.96C492.12 190.84 495.12 190.96 492.96 190.96Z" fill="white" stroke="white" stroke-width="2.57964" stroke-miterlimit="10"/>
<path d="M436.2 184.241C435.72 184.241 435.24 184.361 435.12 184.361C435 184.721 438.12 184.121 436.2 184.241Z" fill="white" stroke="white" stroke-width="2.57964" stroke-miterlimit="10"/>
<path d="M500.04 191.2C499.56 191.2 499.08 191.2 499.08 191.32C499.2 191.32 502.2 191.2 500.04 191.2Z" fill="white" stroke="white" stroke-width="2.57964" stroke-miterlimit="10"/>
<path d="M430.32 197.56C429.12 197.56 429.24 198.28 430.32 198.16C431.52 198.16 431.4 197.56 430.32 197.56Z" fill="white" stroke="white" stroke-width="2.57964" stroke-miterlimit="10"/>
<path d="M436.56 221.2C435.12 221.2 435.84 222.04 436.92 222.04C438.48 222.04 437.64 221.2 436.56 221.2Z" fill="white" stroke="white" stroke-width="2.57964" stroke-miterlimit="10"/>
<path d="M456.6 190.96C456.24 190.96 455.76 191.08 455.64 191.2C456.12 191.56 458.52 190.72 456.6 190.96Z" fill="white" stroke="white" stroke-width="2.57964" stroke-miterlimit="10"/>
<path d="M435.72 192.64C435.24 192.76 434.76 192.76 434.64 192.76C434.76 192.52 437.76 192.28 435.72 192.64Z" fill="white" stroke="white" stroke-width="2.57964" stroke-miterlimit="10"/>
<path d="M444.72 195.76C444.24 195.88 443.76 195.88 443.64 195.88C443.88 195.76 446.88 195.4 444.72 195.76Z" fill="white" stroke="white" stroke-width="2.57964" stroke-miterlimit="10"/>
<path d="M424.08 189.04C423.6 189.16 423.12 189.16 423 189.16C422.88 188.92 426 188.68 424.08 189.04Z" fill="white" stroke="white" stroke-width="2.57964" stroke-miterlimit="10"/>
<path d="M451.56 196.121C451.08 196.241 450.6 196.24 450.6 196.24C450.72 196.24 453.84 195.761 451.56 196.121Z" fill="white" stroke="white" stroke-width="2.57964" stroke-miterlimit="10"/>
<path d="M409.2 187.6C408.6 187.72 407.4 187.84 408.6 187.6C409.2 187.48 410.52 187.36 409.2 187.6Z" fill="white" stroke="white" stroke-width="2.57964" stroke-miterlimit="10"/>
<path d="M385.68 221.44C384.48 221.56 384.84 222.28 385.92 222.16C387.12 222.16 386.76 221.32 385.68 221.44Z" fill="white" stroke="white" stroke-width="2.57964" stroke-miterlimit="10"/>
<path d="M383.28 201.76C382.32 201.88 382.08 202.48 383.16 202.24C384.24 202.12 384.48 201.52 383.28 201.76Z" fill="white" stroke="white" stroke-width="2.57964" stroke-miterlimit="10"/>
<path d="M391.44 190.36C390.84 190.48 389.64 190.84 390.96 190.6C391.56 190.48 392.64 190.12 391.44 190.36Z" fill="white" stroke="white" stroke-width="2.57964" stroke-miterlimit="10"/>
<path d="M406.08 200.32C405.84 200.32 404.64 200.68 405.24 200.68C405.96 200.8 408 200.08 406.08 200.32Z" fill="white" stroke="white" stroke-width="2.57964" stroke-miterlimit="10"/>
<path d="M366 198.52C365.52 198.64 365.16 198.76 364.92 198.76C364.92 198.76 367.8 198.04 366 198.52Z" fill="white" stroke="white" stroke-width="2.57964" stroke-miterlimit="10"/>
<path d="M378.84 199.36C378.36 199.48 377.88 199.6 377.88 199.6C377.88 199.24 380.76 198.76 378.84 199.36Z" fill="white" stroke="white" stroke-width="2.57964" stroke-miterlimit="10"/>
<path d="M401.16 205.48C400.68 205.6 400.2 205.72 400.08 205.72C400.2 205.72 403.56 205 401.16 205.48Z" fill="white" stroke="white" stroke-width="2.57964" stroke-miterlimit="10"/>
<path d="M349.44 202.121C349.08 202.241 348.6 202.361 348.48 202.481C348.36 202.481 351.12 201.521 349.44 202.121Z" fill="white" stroke="white" stroke-width="2.57964" stroke-miterlimit="10"/>
<path d="M388.32 202.36C387.84 202.48 387.36 202.6 387.36 202.48C387.48 202.36 390.48 201.88 388.32 202.36Z" fill="white" stroke="white" stroke-width="2.57964" stroke-miterlimit="10"/>
<path d="M339.72 211.72C338.88 211.96 338.4 212.44 339.6 212.2C340.32 211.96 340.92 211.36 339.72 211.72Z" fill="white" stroke="white" stroke-width="2.57964" stroke-miterlimit="10"/>
<path d="M395.52 205.36C395.04 205.48 394.56 205.6 394.56 205.48C394.56 205.36 397.8 204.76 395.52 205.36Z" fill="white" stroke="white" stroke-width="2.57964" stroke-miterlimit="10"/>
<path d="M338.76 228.04C337.68 228.28 337.68 228.88 338.88 228.64C339.84 228.4 339.84 227.8 338.76 228.04Z" fill="white" stroke="white" stroke-width="2.57964" stroke-miterlimit="10"/>
<path d="M353.88 212.2C353.64 212.2 352.32 212.56 353.04 212.56C353.76 212.56 355.8 211.84 353.88 212.2Z" fill="white" stroke="white" stroke-width="2.57964" stroke-miterlimit="10"/>
<path d="M334.08 212.44C333.24 212.68 332.64 212.8 333.84 212.44C334.56 212.08 335.28 212.08 334.08 212.44Z" fill="white" stroke="white" stroke-width="2.57964" stroke-miterlimit="10"/>
<path d="M323.88 212.56C323.4 212.68 323.04 212.8 322.92 212.92C322.8 212.8 325.68 211.84 323.88 212.56Z" fill="white" stroke="white" stroke-width="2.57964" stroke-miterlimit="10"/>
<path d="M309 217C308.64 217.12 308.16 217.36 308.04 217.36C307.92 217.36 310.56 216.28 309 217Z" fill="white" stroke="white" stroke-width="2.57964" stroke-miterlimit="10"/>
<path d="M345.6 217.6C344.52 217.84 344.16 217.84 345.48 217.6C346.56 217.24 346.92 217.24 345.6 217.6Z" fill="white" stroke="white" stroke-width="2.57964" stroke-miterlimit="10"/>
<path d="M340.92 214.96C340.44 215.08 339.96 215.2 339.96 215.2C340.08 214.96 343.08 214.36 340.92 214.96Z" fill="white" stroke="white" stroke-width="2.57964" stroke-miterlimit="10"/>
<path d="M298.2 225.281C297.84 225.401 297.36 225.641 297.36 225.761C297.48 226.121 300 224.801 298.2 225.281Z" fill="white" stroke="white" stroke-width="2.57964" stroke-miterlimit="10"/>
<path d="M349.56 217.48C349.08 217.6 348.6 217.72 348.6 217.72L350.52 217.24C350.4 217.24 350.04 217.36 349.56 217.48Z" fill="white" stroke="white" stroke-width="2.57964" stroke-miterlimit="10"/>
<path d="M301.08 224.56C300.84 224.56 299.52 224.92 300.24 224.92C300.96 225.04 303 224.2 301.08 224.56Z" fill="white" stroke="white" stroke-width="2.57964" stroke-miterlimit="10"/>
<path d="M289.2 226.24C288.72 226.36 288.36 226.48 288.24 226.48C288.36 226.36 291.36 225.52 289.2 226.24Z" fill="white" stroke="white" stroke-width="2.57964" stroke-miterlimit="10"/>
<path d="M293.16 228.16C292.68 228.28 292.32 228.4 292.2 228.4C292.44 228.16 295.44 227.56 293.16 228.16Z" fill="white" stroke="white" stroke-width="2.57964" stroke-miterlimit="10"/>
<path d="M297.48 230.08C297 230.2 296.52 230.32 296.52 230.32C296.4 230.32 298.44 229.84 298.44 229.84C298.44 229.84 297.96 229.96 297.48 230.08Z" fill="white" stroke="white" stroke-width="2.57964" stroke-miterlimit="10"/>
<path d="M295.44 230.441C294.12 230.681 294.24 230.681 295.44 230.441C296.52 230.081 296.64 230.081 295.44 230.441Z" fill="white"/>
<path d="M295.44 230.441C294.12 230.681 294.24 230.681 295.44 230.441ZM295.44 230.441C296.52 230.081 296.64 230.081 295.44 230.441Z" stroke="white" stroke-width="2.57964" stroke-miterlimit="10"/>
<path d="M281.76 227.2C281.28 227.32 280.92 227.44 280.8 227.56C280.8 227.44 283.56 226.6 281.76 227.2Z" fill="white" stroke="white" stroke-width="2.57964" stroke-miterlimit="10"/>
<path d="M53.0401 226.121C52.9201 226.001 52.3201 225.88 52.4401 226.24C52.6801 226.6 53.8801 226.601 53.0401 226.121Z" fill="white" stroke="white" stroke-width="2.57964" stroke-miterlimit="10"/>
<path d="M31.0803 215.2C30.7203 214.96 30.1203 215.2 30.7203 215.44C31.0803 215.68 31.6803 215.56 31.0803 215.2Z" fill="white" stroke="white" stroke-width="2.57964" stroke-miterlimit="10"/>
<path d="M2.88026 222.88C2.52026 222.76 2.16031 222.64 2.04031 222.76C1.80031 222.76 4.08026 223.24 2.88026 222.88Z" fill="white" stroke="white" stroke-width="2.57964" stroke-miterlimit="10"/>
<path d="M17.7603 221.08C17.4003 220.84 16.5603 220.84 17.2803 221.2C17.6403 221.32 18.4803 221.32 17.7603 221.08Z" fill="white" stroke="white" stroke-width="2.57964" stroke-miterlimit="10"/>
<path d="M9.48006 204.16C9.36006 204.04 9.00006 204.04 8.88006 204.16C8.52006 204.64 10.4401 204.64 9.48006 204.16Z" fill="white" stroke="white" stroke-width="2.57964" stroke-miterlimit="10"/>
</g>
</g>
<g style="mix-blend-mode:screen" filter="url(#filter0_f_2001_466)">
<ellipse cx="720" cy="413" rx="520" ry="94" fill="#60B6FF"/>
</g>
<defs>
<filter id="filter0_f_2001_466" x="-400" y="-281" width="2240" height="1388" filterUnits="userSpaceOnUse" color-interpolation-filters="sRGB">
<feFlood flood-opacity="0" result="BackgroundImageFix"/>
<feBlend mode="normal" in="SourceGraphic" in2="BackgroundImageFix" result="shape"/>
<feGaussianBlur stdDeviation="300" result="effect1_foregroundBlur_2001_466"/>
</filter>
</defs>
</svg>
