<svg width="127" height="20" viewBox="0 0 127 20" fill="none" xmlns="http://www.w3.org/2000/svg">
<path d="M126.667 19.6105H121.942L118.184 14.108H117.651V19.6105H113.708V0H117.651V10.7538H118.184L121.967 6.15577H126.468L121.458 12.0477L126.667 19.6105Z" fill="black"/>
<path d="M106.105 20C104.071 20 102.501 19.4221 101.393 18.2663C100.285 17.1022 99.731 15.4564 99.731 13.3291C99.731 12.1734 99.8591 11.1432 100.115 10.2387C100.372 9.3258 100.769 8.53434 101.306 7.86433C101.843 7.18593 102.558 6.66667 103.451 6.30654C104.344 5.9464 105.398 5.76634 106.614 5.76634C108.193 5.76634 109.458 6.14741 110.408 6.90955C111.367 7.66332 111.847 8.8191 111.847 10.3769L108.04 11.3568C108.015 10.7873 107.879 10.2806 107.631 9.83669C107.349 9.4263 106.895 9.22111 106.266 9.22111C105.853 9.22111 105.498 9.30067 105.2 9.4598C104.911 9.61056 104.683 9.80319 104.518 10.0377C104.353 10.2638 104.224 10.557 104.133 10.9171C104.042 11.2772 103.985 11.6122 103.96 11.9221C103.935 12.232 103.923 12.5921 103.923 13.0025C103.923 13.3794 103.935 13.7144 103.96 14.0075C103.985 14.2923 104.042 14.6022 104.133 14.9372C104.224 15.2722 104.344 15.5528 104.493 15.7789C104.65 15.9966 104.869 16.1809 105.15 16.3317C105.431 16.474 105.766 16.5452 106.155 16.5452C106.8 16.5452 107.283 16.3568 107.606 15.9799C107.936 15.603 108.156 15.0712 108.263 14.3844L111.872 15.6533C111.781 16.3987 111.562 17.0561 111.215 17.6256C110.867 18.1868 110.429 18.639 109.9 18.9824C109.371 19.3258 108.788 19.5812 108.151 19.7487C107.515 19.9162 106.833 20 106.105 20Z" fill="black"/>
<path d="M84.9487 12.8894C84.9487 11.5075 85.1968 10.2889 85.6928 9.23367C86.1889 8.17002 86.9453 7.32831 87.9622 6.70855C88.9791 6.08041 90.1945 5.76634 91.6082 5.76634C93.8653 5.76634 95.5477 6.36098 96.6555 7.55026C97.7634 8.73116 98.3173 10.5109 98.3173 12.8894C98.3173 14.2881 98.0652 15.5193 97.5608 16.5829C97.0565 17.6382 96.2918 18.4715 95.2666 19.0829C94.2497 19.6943 93.0302 20 91.6082 20C87.1686 20 84.9487 17.6298 84.9487 12.8894ZM89.1404 12.8894C89.1404 13.2831 89.1569 13.639 89.19 13.9573C89.223 14.2755 89.2933 14.6022 89.4008 14.9372C89.5083 15.2722 89.6488 15.5528 89.8224 15.7789C90.0043 16.005 90.2441 16.1893 90.5417 16.3317C90.8476 16.474 91.2031 16.5452 91.6082 16.5452C92.0216 16.5452 92.3812 16.4782 92.6871 16.3442C93.0013 16.2018 93.2452 16.0218 93.4188 15.804C93.6007 15.5779 93.7454 15.3015 93.8529 14.9749C93.9686 14.6399 94.043 14.3132 94.0761 13.995C94.1091 13.6683 94.1257 13.2998 94.1257 12.8894C94.1257 12.4288 94.1009 11.9766 94.0513 11.5327C93.9686 11.072 93.8446 10.6826 93.6792 10.3643C93.5139 10.0461 93.2617 9.7655 92.9228 9.52262C92.5921 9.32161 92.1539 9.22111 91.6082 9.22111C91.0791 9.22111 90.6451 9.32161 90.3061 9.52262C89.8266 9.85762 89.5124 10.3099 89.3636 10.8794C89.2148 11.4405 89.1404 12.1106 89.1404 12.8894Z" fill="black"/>
<path d="M73.8869 19.6105H69.6953V1.14322H76.5532C77.3304 1.14322 78.0455 1.20603 78.6986 1.33166C79.36 1.44891 79.976 1.64992 80.5464 1.93468C81.1252 2.21106 81.6129 2.567 82.0098 3.00251C82.4066 3.42965 82.7167 3.96985 82.9399 4.62312C83.1714 5.26801 83.2871 6.00084 83.2871 6.82161C83.2871 8.03601 83.0184 9.10804 82.481 10.0377C81.9519 10.9673 81.1624 11.6792 80.1124 12.1734L84.6017 19.6105H79.7031L75.896 13.0779H73.8869V19.6105ZM73.8869 9.62311H76.2184C77.0203 9.62311 77.6528 9.43048 78.1158 9.04522C78.5788 8.65159 78.8103 8.05695 78.8103 7.2613C78.8103 6.41541 78.5953 5.82077 78.1654 5.47739C77.7355 5.12563 77.0865 4.94975 76.2184 4.94975H73.8869V9.62311Z" fill="black"/>
<path d="M61.2005 20C59.0923 20 57.476 19.4263 56.3516 18.2789C55.2272 17.1315 54.665 15.4564 54.665 13.2538C54.665 12.3744 54.7394 11.562 54.8883 10.8166C55.0453 10.0712 55.2934 9.38443 55.6323 8.75628C55.9796 8.12814 56.4054 7.59632 56.9097 7.16081C57.4223 6.71692 58.0506 6.37354 58.7947 6.13066C59.547 5.88778 60.3903 5.76634 61.3245 5.76634C63.2013 5.76634 64.677 6.22279 65.7518 7.13568C66.8266 8.04858 67.3639 9.46399 67.3639 11.3819C67.3639 11.7504 67.3474 12.2446 67.3143 12.8643C67.2482 13.4841 67.1903 13.9405 67.1407 14.2337H58.8567C58.9063 16.0678 59.762 16.9849 61.4237 16.9849C62.5729 16.9849 63.2591 16.4112 63.4823 15.2638L66.9423 16.5201C66.8431 17.0477 66.6529 17.5209 66.3718 17.9397C66.099 18.3501 65.7766 18.6851 65.4045 18.9447C65.0325 19.196 64.6067 19.4054 64.1272 19.5729C63.6477 19.732 63.1723 19.8409 62.7011 19.8995C62.2298 19.9665 61.7296 20 61.2005 20ZM63.0731 11.3568C63.0814 11.3317 63.0896 11.2814 63.0979 11.206C63.1062 11.1307 63.1144 11.0762 63.1227 11.0427C63.1227 10.3308 62.9904 9.79481 62.7259 9.43468C62.4613 9.06617 61.9859 8.88191 61.2997 8.88191C60.9608 8.88191 60.6259 8.94473 60.2952 9.07035C59.9728 9.19598 59.7165 9.38024 59.5263 9.62312C59.113 10.0921 58.9063 10.67 58.9063 11.3568H63.0731Z" fill="black"/>
<path d="M50.7213 9.62311V15C50.7213 15.8961 51.1347 16.3442 51.9614 16.3442C52.3583 16.3442 52.8336 16.2228 53.3876 15.9799L54.2681 18.9196C53.2015 19.4975 52.0441 19.7864 50.7957 19.7864C49.3323 19.7864 48.2948 19.4053 47.683 18.6432C47.0795 17.8727 46.7777 16.696 46.7777 15.1131V9.62311H45.1035V6.18091H46.7777V3.42965L50.7213 2.3995V6.18091H53.6108V9.62311H50.7213Z" fill="black"/>
<path d="M43.789 19.6105H39.8454V6.15578H43.789V19.6105ZM39.647 2.22362C39.647 1.60386 39.8537 1.10135 40.267 0.716088C40.6804 0.330829 41.193 0.138199 41.8048 0.138199C42.4249 0.138199 42.9416 0.330829 43.355 0.716088C43.7766 1.10135 43.9874 1.60386 43.9874 2.22362C43.9874 2.82664 43.7766 3.32496 43.355 3.7186C42.9333 4.10386 42.4166 4.29649 41.8048 4.29649C41.1517 4.29649 40.6349 4.09129 40.2546 3.68091C39.8495 3.29565 39.647 2.80989 39.647 2.22362Z" fill="black"/>
<path d="M25.4102 19.6105V0H29.3538V7.33668H29.453C29.9408 6.75041 30.4409 6.34422 30.9535 6.11809C31.4744 5.88358 32.1192 5.76633 32.8881 5.76633C34.368 5.76633 35.4759 6.17252 36.2117 6.98492C36.9557 7.78894 37.3278 8.96984 37.3278 10.5276V19.6105H33.3966V11.7588C33.3966 11.4489 33.3883 11.1893 33.3718 10.9799C33.3552 10.7621 33.3098 10.536 33.2354 10.3015C33.1692 10.0586 33.07 9.86599 32.9377 9.72361C32.8137 9.58123 32.636 9.46398 32.4045 9.37185C32.173 9.27135 31.8919 9.2211 31.5612 9.2211C30.5691 9.2211 29.8333 9.68173 29.3538 10.603V19.6105H25.4102Z" fill="black"/>
<path d="M13.0337 10.1131L12.3269 6.97236L11.6324 10.0879L9.20175 19.6105H5.08452L0 1.14322H4.35285L6.8083 10.7286L7.31675 13.103L7.8004 10.7286L10.1442 1.14322H14.9435L17.399 10.7286L17.8578 13.0779L18.3167 10.7286L20.5737 1.14322H24.4181L19.7676 19.6105H15.6752L13.0337 10.1131Z" fill="black"/>
</svg>
